# Blender 5.1.1
# www.blender.org
mtllib pool.mtl
o Cube
v -2.100768 -0.700000 2.000000
v -3.000000 -0.700000 1.400512
v -2.378646 -0.700000 1.970659
v -2.629323 -0.700000 1.885508
v -2.828262 -0.700000 1.752882
v -2.955988 -0.700000 1.585764
v -2.911566 0.700000 1.395872
v -2.093808 0.700000 1.941044
v -2.870834 0.700000 1.567318
v -2.755825 0.700000 1.717797
v -2.576695 0.700000 1.837217
v -2.350977 0.700000 1.913889
v -3.000000 -0.700000 -1.400512
v -2.100768 -0.700000 -2.000000
v -2.955988 -0.700000 -1.585764
v -2.828262 -0.700000 -1.752882
v -2.629323 -0.700000 -1.885508
v -2.378646 -0.700000 -1.970659
v -2.093808 0.700000 -1.941044
v -2.911566 0.700000 -1.395872
v -2.350977 0.700000 -1.913889
v -2.576695 0.700000 -1.837217
v -2.755825 0.700000 -1.717797
v -2.870834 0.700000 -1.567318
v 3.000000 -0.700000 1.400512
v 2.100768 -0.700000 2.000000
v 2.955988 -0.700000 1.585764
v 2.828262 -0.700000 1.752882
v 2.629323 -0.700000 1.885508
v 2.378646 -0.700000 1.970659
v 2.093808 0.700000 1.941044
v 2.911566 0.700000 1.395872
v 2.350977 0.700000 1.913889
v 2.576695 0.700000 1.837217
v 2.755825 0.700000 1.717797
v 2.870834 0.700000 1.567318
v 2.100768 -0.700000 -2.000000
v 3.000000 -0.700000 -1.400512
v 2.378646 -0.700000 -1.970659
v 2.629323 -0.700000 -1.885508
v 2.828262 -0.700000 -1.752882
v 2.955988 -0.700000 -1.585764
v 2.911566 0.700000 -1.395872
v 2.093808 0.700000 -1.941044
v 2.870834 0.700000 -1.567318
v 2.755825 0.700000 -1.717797
v 2.576695 0.700000 -1.837217
v 2.350977 0.700000 -1.913889
v -2.100768 0.700000 2.000000
v -2.378646 0.700000 1.970659
v -2.629323 0.700000 1.885508
v -2.828262 0.700000 1.752882
v -2.955988 0.700000 1.585764
v -3.000000 0.700000 1.400512
v -2.378646 0.700000 -1.970659
v -2.100768 0.700000 -2.000000
v -2.629323 0.700000 -1.885508
v -2.828262 0.700000 -1.752882
v -2.955988 0.700000 -1.585764
v -3.000000 0.700000 -1.400512
v 2.955988 0.700000 -1.585764
v 3.000000 0.700000 -1.400512
v 2.828262 0.700000 -1.752882
v 2.629323 0.700000 -1.885508
v 2.378646 0.700000 -1.970659
v 2.100768 0.700000 -2.000000
v 2.378646 0.700000 1.970659
v 2.100768 0.700000 2.000000
v 2.629323 0.700000 1.885508
v 2.828262 0.700000 1.752882
v 2.955988 0.700000 1.585764
v 3.000000 0.700000 1.400512
v -2.093808 -0.622611 1.941044
v -2.350977 -0.622611 1.913889
v -2.576695 -0.622611 1.837217
v -2.755825 -0.622611 1.717797
v -2.870834 -0.622611 1.567318
v -2.911566 -0.622611 1.395872
v -2.350977 -0.622611 -1.913889
v -2.093808 -0.622611 -1.941044
v -2.576695 -0.622611 -1.837217
v -2.755825 -0.622611 -1.717797
v -2.870834 -0.622611 -1.567318
v -2.911566 -0.622611 -1.395872
v 2.870834 -0.622611 -1.567318
v 2.911566 -0.622611 -1.395872
v 2.755825 -0.622611 -1.717797
v 2.576695 -0.622611 -1.837217
v 2.350977 -0.622611 -1.913889
v 2.093808 -0.622611 -1.941044
v 2.350977 -0.622611 1.913889
v 2.093808 -0.622611 1.941044
v 2.576695 -0.622611 1.837217
v 2.755825 -0.622611 1.717797
v 2.870834 -0.622611 1.567318
v 2.911566 -0.622611 1.395872
vn -0.0524 -0.0000 0.9986
vn -0.2117 -0.0000 0.9773
vn -0.4359 -0.0000 0.9000
vn -0.6761 -0.0000 0.7368
vn -0.8989 -0.0000 0.4381
vn -0.9931 -0.0000 0.1172
vn -0.0524 -0.0000 -0.9986
vn -0.2117 -0.0000 -0.9773
vn -0.4359 -0.0000 -0.9000
vn -0.6761 -0.0000 -0.7368
vn -0.8989 -0.0000 -0.4381
vn -0.9931 -0.0000 -0.1172
vn 0.9931 -0.0000 -0.1172
vn 0.8989 -0.0000 -0.4381
vn 0.6761 -0.0000 -0.7368
vn 0.4359 -0.0000 -0.9000
vn 0.2117 -0.0000 -0.9773
vn 0.0524 -0.0000 -0.9986
vn 0.0524 -0.0000 0.9986
vn 0.2117 -0.0000 0.9773
vn 0.4359 -0.0000 0.9000
vn 0.6761 -0.0000 0.7368
vn 0.8989 -0.0000 0.4381
vn 0.9931 -0.0000 0.1172
vn -0.0000 -1.0000 -0.0000
vn -0.0000 1.0000 -0.0000
vt 0.375000 0.962532
vt 0.625000 0.962532
vt 0.625000 0.974110
vt 0.375000 0.974110
vt 0.625000 1.000000
vt 0.375000 1.000000
vt 0.375000 0.000000
vt 0.625000 0.000000
vt 0.625000 0.015445
vt 0.375000 0.015445
vt 0.625000 0.025890
vt 0.375000 0.025890
vt 0.625000 0.037468
vt 0.375000 0.037468
vt 0.625000 0.287468
vt 0.375000 0.287468
vt 0.375000 0.275890
vt 0.625000 0.275890
vt 0.375000 0.265445
vt 0.625000 0.265445
vt 0.375000 0.234555
vt 0.625000 0.234555
vt 0.375000 0.224110
vt 0.625000 0.224110
vt 0.375000 0.212532
vt 0.625000 0.212532
vt 0.625000 0.537468
vt 0.375000 0.537468
vt 0.374389 0.525890
vt 0.625611 0.525890
vt 0.372615 0.515445
vt 0.627385 0.515445
vt 0.369852 0.492089
vt 0.630148 0.492089
vt 0.366370 0.483351
vt 0.633630 0.483351
vt 0.362511 0.475021
vt 0.637489 0.475021
vt 0.637489 0.774979
vt 0.362511 0.774979
vt 0.366370 0.766649
vt 0.633630 0.766649
vt 0.369852 0.757911
vt 0.630148 0.757911
vt 0.372615 0.734555
vt 0.627385 0.734555
vt 0.374389 0.724110
vt 0.625611 0.724110
vt 0.375000 0.712532
vt 0.625000 0.712532
vt 0.125000 0.537468
vt 0.126834 0.525890
vt 0.132156 0.515445
vt 0.140445 0.507156
vt 0.150890 0.501834
vt 0.162468 0.500000
vt 0.162468 0.750000
vt 0.150890 0.748166
vt 0.140445 0.742844
vt 0.132156 0.734555
vt 0.126834 0.724110
vt 0.125000 0.712532
vt 0.640256 0.481125
vt 0.836940 0.503485
vt 0.836940 0.746515
vt 0.847858 0.744625
vt 0.849110 0.748166
vt 0.837532 0.750000
vt 0.857270 0.739829
vt 0.859555 0.742844
vt 0.864729 0.732370
vt 0.867844 0.734555
vt 0.869512 0.722971
vt 0.873166 0.724110
vt 0.871190 0.712264
vt 0.875000 0.712532
vt 0.847858 0.505375
vt 0.837532 0.500000
vt 0.849110 0.501834
vt 0.857270 0.510171
vt 0.859555 0.507156
vt 0.864729 0.517630
vt 0.867844 0.515445
vt 0.869512 0.527029
vt 0.873166 0.525890
vt 0.871190 0.537736
vt 0.875000 0.537468
vt 0.628185 0.526324
vt 0.627805 0.537219
vt 0.629723 0.515051
vt 0.632199 0.497115
vt 0.635412 0.487525
vt 0.635412 0.762475
vt 0.640256 0.768875
vt 0.632199 0.752885
vt 0.629723 0.734949
vt 0.628185 0.723676
vt 0.627805 0.712781
s 1
f 1/1/1 49/2/1 50/3/2 3/4/2
f 3/4/2 50/3/2 51/5/3 4/6/3
f 4/7/3 51/8/3 52/9/4 5/10/4
f 5/10/4 52/9/4 53/11/5 6/12/5
f 6/12/5 53/11/5 54/13/6 2/14/6
f 56/15/7 14/16/7 18/17/8 55/18/8
f 55/18/8 18/17/8 17/19/9 57/20/9
f 57/20/9 17/19/9 16/21/10 58/22/10
f 58/22/10 16/21/10 15/23/11 59/24/11
f 59/24/11 15/23/11 13/25/12 60/26/12
f 62/27/13 38/28/13 42/29/14 61/30/14
f 61/30/14 42/29/14 41/31/15 63/32/15
f 63/32/15 41/31/15 40/33/16 64/34/16
f 64/34/16 40/33/16 39/35/17 65/36/17
f 65/36/17 39/35/17 37/37/18 66/38/18
f 68/39/19 26/40/19 30/41/20 67/42/20
f 67/42/20 30/41/20 29/43/21 69/44/21
f 69/44/21 29/43/21 28/45/22 70/46/22
f 70/46/22 28/45/22 27/47/23 71/48/23
f 71/48/23 27/47/23 25/49/24 72/50/24
f 13/51/25 15/52/25 16/53/25 17/54/25 18/55/25 14/56/25 37/37/25 39/35/25 40/33/25 41/31/25 42/29/25 38/28/25 25/49/25 27/47/25 28/45/25 29/43/25 30/41/25 26/40/25 1/57/25 3/58/25 4/59/25 5/60/25 6/61/25 2/62/25
f 2/14/6 54/13/6 60/26/12 13/25/12
f 26/40/19 68/39/19 49/2/1 1/1/1
f 44/63/1 19/64/19 80/64/19 90/63/1
f 14/16/7 56/15/7 66/38/18 37/37/18
f 38/28/13 62/27/13 72/50/24 25/49/24
f 8/65/26 12/66/26 50/67/26 49/68/26
f 12/66/26 11/69/26 51/70/26 50/67/26
f 11/69/26 10/71/26 52/72/26 51/70/26
f 10/71/26 9/73/26 53/74/26 52/72/26
f 9/73/26 7/75/26 54/76/26 53/74/26
f 21/77/26 19/64/26 56/78/26 55/79/26
f 22/80/26 21/77/26 55/79/26 57/81/26
f 23/82/26 22/80/26 57/81/26 58/83/26
f 24/84/26 23/82/26 58/83/26 59/85/26
f 20/86/26 24/84/26 59/85/26 60/87/26
f 45/88/26 43/89/26 62/27/26 61/30/26
f 46/90/26 45/88/26 61/30/26 63/32/26
f 47/91/26 46/90/26 63/32/26 64/34/26
f 48/92/26 47/91/26 64/34/26 65/36/26
f 44/63/26 48/92/26 65/36/26 66/38/26
f 33/93/26 31/94/26 68/39/26 67/42/26
f 34/95/26 33/93/26 67/42/26 69/44/26
f 35/96/26 34/95/26 69/44/26 70/46/26
f 36/97/26 35/96/26 70/46/26 71/48/26
f 32/98/26 36/97/26 71/48/26 72/50/26
f 7/75/26 20/86/26 60/87/26 54/76/26
f 31/94/26 8/65/26 49/68/26 68/39/26
f 43/89/26 32/98/26 72/50/26 62/27/26
f 19/64/26 44/63/26 66/38/26 56/78/26
f 86/89/26 85/88/26 87/90/26 88/91/26 89/92/26 90/63/26 80/64/26 79/77/26 81/80/26 82/82/26 83/84/26 84/86/26 78/75/26 77/73/26 76/71/26 75/69/26 74/66/26 73/65/26 92/94/26 91/93/26 93/95/26 94/96/26 95/97/26 96/98/26
f 11/69/16 12/66/17 74/66/17 75/69/16
f 33/93/8 34/95/9 93/95/9 91/93/8
f 24/84/23 20/86/24 84/86/24 83/84/23
f 10/71/15 11/69/16 75/69/16 76/71/15
f 34/95/9 35/96/10 94/96/10 93/95/9
f 43/89/6 45/88/5 85/88/5 86/89/6
f 9/73/14 10/71/15 76/71/15 77/73/14
f 35/96/10 36/97/11 95/97/11 94/96/10
f 45/88/5 46/90/4 87/90/4 85/88/5
f 7/75/13 9/73/14 77/73/14 78/75/13
f 36/97/11 32/98/12 96/98/12 95/97/11
f 46/90/4 47/91/3 88/91/3 87/90/4
f 19/64/19 21/77/20 79/77/20 80/64/19
f 20/86/24 7/75/13 78/75/13 84/86/24
f 47/91/3 48/92/2 89/92/2 88/91/3
f 21/77/20 22/80/21 81/80/21 79/77/20
f 8/65/18 31/94/7 92/94/7 73/65/18
f 48/92/2 44/63/1 90/63/1 89/92/2
f 22/80/21 23/82/22 82/82/22 81/80/21
f 32/98/12 43/89/6 86/89/6 96/98/12
f 12/66/17 8/65/18 73/65/18 74/66/17
f 31/94/7 33/93/8 91/93/8 92/94/7
f 23/82/22 24/84/23 83/84/23 82/82/22
