# Blender 5.1.1
# www.blender.org
mtllib tile.mtl
o Plane
v -0.200000 0.000000 0.200000
v 0.200000 0.000000 0.200000
v -0.200000 0.000000 -0.200000
v 0.200000 0.000000 -0.200000
v -0.200000 0.000000 -0.160000
v -0.200000 0.000000 -0.120000
v -0.200000 0.000000 -0.080000
v -0.200000 0.000000 -0.040000
v -0.200000 0.000000 0.000000
v -0.200000 0.000000 0.040000
v -0.200000 0.000000 0.080000
v -0.200000 0.000000 0.120000
v -0.200000 0.000000 0.160000
v -0.160000 0.000000 0.200000
v -0.120000 0.000000 0.200000
v -0.080000 0.000000 0.200000
v -0.040000 0.000000 0.200000
v 0.000000 0.000000 0.200000
v 0.040000 0.000000 0.200000
v 0.080000 0.000000 0.200000
v 0.120000 0.000000 0.200000
v 0.160000 0.000000 0.200000
v 0.200000 0.000000 0.160000
v 0.200000 0.000000 0.120000
v 0.200000 0.000000 0.080000
v 0.200000 0.000000 0.040000
v 0.200000 0.000000 0.000000
v 0.200000 0.000000 -0.040000
v 0.200000 0.000000 -0.080000
v 0.200000 0.000000 -0.120000
v 0.200000 0.000000 -0.160000
v 0.160000 0.000000 -0.200000
v 0.120000 0.000000 -0.200000
v 0.080000 0.000000 -0.200000
v 0.040000 0.000000 -0.200000
v 0.000000 0.000000 -0.200000
v -0.040000 0.000000 -0.200000
v -0.080000 0.000000 -0.200000
v -0.120000 0.000000 -0.200000
v -0.160000 0.000000 -0.200000
v -0.160000 0.000000 0.160000
v -0.160000 0.000000 0.120000
v -0.160000 0.000000 0.080000
v -0.160000 0.000000 0.040000
v -0.160000 0.000000 0.000000
v -0.160000 0.000000 -0.040000
v -0.160000 0.000000 -0.080000
v -0.160000 0.000000 -0.120000
v -0.160000 0.000000 -0.160000
v -0.120000 0.000000 0.160000
v -0.120000 0.000000 0.120000
v -0.120000 0.000000 0.080000
v -0.120000 0.000000 0.040000
v -0.120000 0.000000 0.000000
v -0.120000 0.000000 -0.040000
v -0.120000 0.000000 -0.080000
v -0.120000 0.000000 -0.120000
v -0.120000 0.000000 -0.160000
v -0.080000 0.000000 0.160000
v -0.080000 0.000000 0.120000
v -0.080000 0.000000 0.080000
v -0.080000 0.000000 0.040000
v -0.080000 0.000000 0.000000
v -0.080000 0.000000 -0.040000
v -0.080000 0.000000 -0.080000
v -0.080000 0.000000 -0.120000
v -0.080000 0.000000 -0.160000
v -0.040000 0.000000 0.160000
v -0.040000 0.000000 0.120000
v -0.040000 0.000000 0.080000
v -0.040000 0.000000 0.040000
v -0.040000 0.000000 0.000000
v -0.040000 0.000000 -0.040000
v -0.040000 0.000000 -0.080000
v -0.040000 0.000000 -0.120000
v -0.040000 0.000000 -0.160000
v 0.000000 0.000000 0.160000
v 0.000000 0.000000 0.120000
v 0.000000 0.000000 0.080000
v 0.000000 0.000000 0.040000
v 0.000000 0.000000 0.000000
v 0.000000 0.000000 -0.040000
v 0.000000 0.000000 -0.080000
v 0.000000 0.000000 -0.120000
v 0.000000 0.000000 -0.160000
v 0.040000 0.000000 0.160000
v 0.040000 0.000000 0.120000
v 0.040000 0.000000 0.080000
v 0.040000 0.000000 0.040000
v 0.040000 0.000000 0.000000
v 0.040000 0.000000 -0.040000
v 0.040000 0.000000 -0.080000
v 0.040000 0.000000 -0.120000
v 0.040000 0.000000 -0.160000
v 0.080000 0.000000 0.160000
v 0.080000 0.000000 0.120000
v 0.080000 0.000000 0.080000
v 0.080000 0.000000 0.040000
v 0.080000 0.000000 0.000000
v 0.080000 0.000000 -0.040000
v 0.080000 0.000000 -0.080000
v 0.080000 0.000000 -0.120000
v 0.080000 0.000000 -0.160000
v 0.120000 0.000000 0.160000
v 0.120000 0.000000 0.120000
v 0.120000 0.000000 0.080000
v 0.120000 0.000000 0.040000
v 0.120000 0.000000 0.000000
v 0.120000 0.000000 -0.040000
v 0.120000 0.000000 -0.080000
v 0.120000 0.000000 -0.120000
v 0.120000 0.000000 -0.160000
v 0.160000 0.000000 0.160000
v 0.160000 0.000000 0.120000
v 0.160000 0.000000 0.080000
v 0.160000 0.000000 0.040000
v 0.160000 0.000000 0.000000
v 0.160000 0.000000 -0.040000
v 0.160000 0.000000 -0.080000
v 0.160000 0.000000 -0.120000
v 0.160000 0.000000 -0.160000
v -0.195496 0.000000 0.200000
v 0.200000 0.000000 0.195496
v -0.200000 0.000000 -0.195496
v 0.195496 0.000000 -0.200000
v -0.200000 0.000000 -0.164503
v -0.200000 0.000000 -0.115497
v -0.200000 0.000000 -0.084504
v -0.200000 0.000000 -0.035496
v -0.200000 0.000000 -0.004504
v -0.200000 0.000000 0.044504
v -0.200000 0.000000 0.075497
v -0.200000 0.000000 0.124504
v -0.200000 0.000000 0.155497
v -0.164503 0.000000 0.200000
v -0.115497 0.000000 0.200000
v -0.084504 0.000000 0.200000
v -0.035496 0.000000 0.200000
v -0.004504 0.000000 0.200000
v 0.044504 0.000000 0.200000
v 0.075497 0.000000 0.200000
v 0.124504 0.000000 0.200000
v 0.155497 0.000000 0.200000
v 0.200000 0.000000 0.164503
v 0.200000 0.000000 0.115497
v 0.200000 0.000000 0.084504
v 0.200000 0.000000 0.035496
v 0.200000 0.000000 0.004504
v 0.200000 0.000000 -0.044504
v 0.200000 0.000000 -0.075497
v 0.200000 0.000000 -0.124504
v 0.200000 0.000000 -0.155497
v 0.164503 0.000000 -0.200000
v 0.115497 0.000000 -0.200000
v 0.084504 0.000000 -0.200000
v 0.035496 0.000000 -0.200000
v 0.004504 0.000000 -0.200000
v -0.044504 0.000000 -0.200000
v -0.075497 0.000000 -0.200000
v -0.124504 0.000000 -0.200000
v -0.155497 0.000000 -0.200000
v 0.230000 0.000000 0.203718
v 0.230000 0.000000 0.156282
v 0.230000 0.000000 0.123718
v 0.230000 0.000000 0.076282
v 0.230000 0.000000 0.043718
v 0.230000 0.000000 -0.003718
v 0.230000 0.000000 -0.036282
v 0.230000 0.000000 -0.083718
v 0.230000 0.000000 -0.116282
v 0.230000 0.000000 -0.163718
v -0.203718 0.000000 0.230000
v 0.203718 0.000000 -0.230000
v -0.156282 0.000000 0.230000
v -0.123718 0.000000 0.230000
v -0.076282 0.000000 0.230000
v -0.043718 0.000000 0.230000
v 0.003718 0.000000 0.230000
v 0.036282 0.000000 0.230000
v 0.083718 0.000000 0.230000
v 0.116282 0.000000 0.230000
v 0.163718 0.000000 0.230000
v 0.156282 0.000000 -0.230000
v 0.123718 0.000000 -0.230000
v 0.076282 0.000000 -0.230000
v 0.043718 0.000000 -0.230000
v -0.003718 0.000000 -0.230000
v -0.036282 0.000000 -0.230000
v -0.083718 0.000000 -0.230000
v -0.116282 0.000000 -0.230000
v -0.163718 0.000000 -0.230000
v -0.230000 0.000000 -0.203718
v -0.230000 0.000000 -0.156282
v -0.230000 0.000000 -0.123718
v -0.230000 0.000000 -0.076282
v -0.230000 0.000000 -0.043718
v -0.230000 0.000000 0.003718
v -0.230000 0.000000 0.036282
v -0.230000 0.000000 0.083718
v -0.230000 0.000000 0.116282
v -0.230000 0.000000 0.163718
v -0.200000 0.018978 0.160000
v -0.200000 0.018978 0.200000
v 0.160000 0.018978 0.200000
v 0.200000 0.018978 0.200000
v 0.200000 0.018978 -0.160000
v 0.200000 0.018978 -0.200000
v -0.160000 0.018978 -0.200000
v -0.200000 0.018978 -0.200000
v -0.200000 0.018978 -0.160000
v -0.200000 0.018978 -0.120000
v -0.200000 0.018978 -0.080000
v -0.200000 0.018978 -0.040000
v -0.200000 0.018978 0.000000
v -0.200000 0.018978 0.040000
v -0.200000 0.018978 0.080000
v -0.200000 0.018978 0.120000
v -0.160000 0.018978 0.200000
v -0.120000 0.018978 0.200000
v -0.080000 0.018978 0.200000
v -0.040000 0.018978 0.200000
v 0.000000 0.018978 0.200000
v 0.040000 0.018978 0.200000
v 0.080000 0.018978 0.200000
v 0.120000 0.018978 0.200000
v 0.200000 0.018978 0.160000
v 0.200000 0.018978 0.120000
v 0.200000 0.018978 0.080000
v 0.200000 0.018978 0.040000
v 0.200000 0.018978 0.000000
v 0.200000 0.018978 -0.040000
v 0.200000 0.018978 -0.080000
v 0.200000 0.018978 -0.120000
v 0.160000 0.018978 -0.200000
v 0.120000 0.018978 -0.200000
v 0.080000 0.018978 -0.200000
v 0.040000 0.018978 -0.200000
v 0.000000 0.018978 -0.200000
v -0.040000 0.018978 -0.200000
v -0.080000 0.018978 -0.200000
v -0.120000 0.018978 -0.200000
v -0.160000 0.018978 -0.160000
v -0.160000 0.018978 0.160000
v -0.160000 0.018978 0.120000
v -0.160000 0.018978 0.080000
v -0.160000 0.018978 0.040000
v -0.160000 0.018978 0.000000
v -0.160000 0.018978 -0.040000
v -0.160000 0.018978 -0.080000
v -0.160000 0.018978 -0.120000
v -0.120000 0.018978 -0.160000
v -0.120000 0.018978 0.160000
v -0.120000 0.018978 0.120000
v -0.120000 0.018978 0.080000
v -0.120000 0.018978 0.040000
v -0.120000 0.018978 0.000000
v -0.120000 0.018978 -0.040000
v -0.120000 0.018978 -0.080000
v -0.120000 0.018978 -0.120000
v -0.080000 0.018978 -0.160000
v -0.080000 0.018978 0.160000
v -0.080000 0.018978 0.120000
v -0.080000 0.018978 0.080000
v -0.080000 0.018978 0.040000
v -0.080000 0.018978 0.000000
v -0.080000 0.018978 -0.040000
v -0.080000 0.018978 -0.080000
v -0.080000 0.018978 -0.120000
v -0.040000 0.018978 -0.160000
v -0.040000 0.018978 0.160000
v -0.040000 0.018978 0.120000
v -0.040000 0.018978 0.080000
v -0.040000 0.018978 0.040000
v -0.040000 0.018978 0.000000
v -0.040000 0.018978 -0.040000
v -0.040000 0.018978 -0.080000
v -0.040000 0.018978 -0.120000
v 0.000000 0.018978 -0.160000
v 0.000000 0.018978 0.160000
v 0.000000 0.018978 0.120000
v 0.000000 0.018978 0.080000
v 0.000000 0.018978 0.040000
v 0.000000 0.018978 0.000000
v 0.000000 0.018978 -0.040000
v 0.000000 0.018978 -0.080000
v 0.000000 0.018978 -0.120000
v 0.040000 0.018978 -0.160000
v 0.040000 0.018978 0.160000
v 0.040000 0.018978 0.120000
v 0.040000 0.018978 0.080000
v 0.040000 0.018978 0.040000
v 0.040000 0.018978 0.000000
v 0.040000 0.018978 -0.040000
v 0.040000 0.018978 -0.080000
v 0.040000 0.018978 -0.120000
v 0.080000 0.018978 -0.160000
v 0.080000 0.018978 0.160000
v 0.080000 0.018978 0.120000
v 0.080000 0.018978 0.080000
v 0.080000 0.018978 0.040000
v 0.080000 0.018978 0.000000
v 0.080000 0.018978 -0.040000
v 0.080000 0.018978 -0.080000
v 0.080000 0.018978 -0.120000
v 0.120000 0.018978 -0.160000
v 0.120000 0.018978 0.160000
v 0.120000 0.018978 0.120000
v 0.120000 0.018978 0.080000
v 0.120000 0.018978 0.040000
v 0.120000 0.018978 0.000000
v 0.120000 0.018978 -0.040000
v 0.120000 0.018978 -0.080000
v 0.120000 0.018978 -0.120000
v 0.160000 0.018978 -0.160000
v 0.160000 0.018978 0.160000
v 0.160000 0.018978 0.120000
v 0.160000 0.018978 0.080000
v 0.160000 0.018978 0.040000
v 0.160000 0.018978 0.000000
v 0.160000 0.018978 -0.040000
v 0.160000 0.018978 -0.080000
v 0.160000 0.018978 -0.120000
v -0.200000 0.018978 -0.195496
v -0.200000 0.018978 -0.164503
v -0.200000 0.018978 -0.115497
v -0.200000 0.018978 -0.084504
v -0.200000 0.018978 -0.035496
v -0.200000 0.018978 -0.004504
v -0.200000 0.018978 0.044504
v -0.200000 0.018978 0.075497
v -0.200000 0.018978 0.124504
v -0.200000 0.018978 0.155497
v -0.195496 0.018978 0.200000
v -0.164503 0.018978 0.200000
v -0.115497 0.018978 0.200000
v -0.084504 0.018978 0.200000
v -0.035496 0.018978 0.200000
v -0.004504 0.018978 0.200000
v 0.044504 0.018978 0.200000
v 0.075497 0.018978 0.200000
v 0.124504 0.018978 0.200000
v 0.155497 0.018978 0.200000
v 0.200000 0.018978 0.195496
v 0.200000 0.018978 0.164503
v 0.200000 0.018978 0.115497
v 0.200000 0.018978 0.084504
v 0.200000 0.018978 0.035496
v 0.200000 0.018978 0.004504
v 0.200000 0.018978 -0.044504
v 0.200000 0.018978 -0.075497
v 0.200000 0.018978 -0.124504
v 0.200000 0.018978 -0.155497
v 0.195496 0.018978 -0.200000
v 0.164503 0.018978 -0.200000
v 0.115497 0.018978 -0.200000
v 0.084504 0.018978 -0.200000
v 0.035496 0.018978 -0.200000
v 0.004504 0.018978 -0.200000
v -0.044504 0.018978 -0.200000
v -0.075497 0.018978 -0.200000
v -0.124504 0.018978 -0.200000
v -0.155497 0.018978 -0.200000
v 0.230000 0.018978 0.203718
v 0.230000 0.018978 0.156282
v 0.230000 0.018978 0.123718
v 0.230000 0.018978 0.076282
v 0.230000 0.018978 0.043718
v 0.230000 0.018978 -0.003718
v 0.230000 0.018978 -0.036282
v 0.230000 0.018978 -0.083718
v 0.230000 0.018978 -0.116282
v 0.230000 0.018978 -0.163718
v -0.203718 0.018978 0.230000
v -0.156282 0.018978 0.230000
v -0.123718 0.018978 0.230000
v -0.076282 0.018978 0.230000
v -0.043718 0.018978 0.230000
v 0.003718 0.018978 0.230000
v 0.036282 0.018978 0.230000
v 0.083718 0.018978 0.230000
v 0.116282 0.018978 0.230000
v 0.163718 0.018978 0.230000
v 0.203718 0.018978 -0.230000
v 0.156282 0.018978 -0.230000
v 0.123718 0.018978 -0.230000
v 0.076282 0.018978 -0.230000
v 0.043718 0.018978 -0.230000
v -0.003718 0.018978 -0.230000
v -0.036282 0.018978 -0.230000
v -0.083718 0.018978 -0.230000
v -0.116282 0.018978 -0.230000
v -0.163718 0.018978 -0.230000
v -0.230000 0.018978 -0.203718
v -0.230000 0.018978 -0.156282
v -0.230000 0.018978 -0.123718
v -0.230000 0.018978 -0.076282
v -0.230000 0.018978 -0.043718
v -0.230000 0.018978 0.003718
v -0.230000 0.018978 0.036282
v -0.230000 0.018978 0.083718
v -0.230000 0.018978 0.116282
v -0.230000 0.018978 0.163718
vn -0.0000 -1.0000 -0.0000
vn -0.0000 1.0000 -0.0000
vn 1.0000 -0.0000 -0.0000
vn -1.0000 -0.0000 -0.0000
vn 0.9644 -0.0000 -0.2643
vn -0.0000 -0.0000 -1.0000
vn -0.9644 -0.0000 -0.2643
vn -0.9644 -0.0000 0.2643
vn 0.9644 -0.0000 0.2643
vn -0.0000 -0.0000 1.0000
vn 0.2643 -0.0000 0.9644
vn 0.2643 -0.0000 -0.9644
vn -0.2643 -0.0000 -0.9644
vn -0.2643 -0.0000 0.9644
vt 0.900000 0.900000
vt 0.900000 1.000000
vt 1.000000 1.000000
vt 1.000000 0.900000
vt 0.000000 0.900000
vt 0.000000 1.000000
vt 0.100000 1.000000
vt 0.100000 0.900000
vt 0.200000 1.000000
vt 0.200000 0.900000
vt 0.300000 1.000000
vt 0.300000 0.900000
vt 0.400000 1.000000
vt 0.400000 0.900000
vt 0.500000 1.000000
vt 0.500000 0.900000
vt 0.600000 1.000000
vt 0.600000 0.900000
vt 0.700000 1.000000
vt 0.700000 0.900000
vt 0.800000 1.000000
vt 0.800000 0.900000
vt 0.000000 0.000000
vt 0.000000 0.100000
vt 0.100000 0.100000
vt 0.100000 0.000000
vt 0.000000 0.200000
vt 0.100000 0.200000
vt 0.000000 0.300000
vt 0.100000 0.300000
vt 0.000000 0.400000
vt 0.100000 0.400000
vt 0.000000 0.500000
vt 0.100000 0.500000
vt 0.000000 0.600000
vt 0.100000 0.600000
vt 0.000000 0.700000
vt 0.100000 0.700000
vt 0.000000 0.800000
vt 0.100000 0.800000
vt 0.200000 0.100000
vt 0.200000 0.000000
vt 0.200000 0.200000
vt 0.200000 0.300000
vt 0.200000 0.400000
vt 0.200000 0.500000
vt 0.200000 0.600000
vt 0.200000 0.700000
vt 0.200000 0.800000
vt 0.300000 0.100000
vt 0.300000 0.000000
vt 0.300000 0.200000
vt 0.300000 0.300000
vt 0.300000 0.400000
vt 0.300000 0.500000
vt 0.300000 0.600000
vt 0.300000 0.700000
vt 0.300000 0.800000
vt 0.400000 0.100000
vt 0.400000 0.000000
vt 0.400000 0.200000
vt 0.400000 0.300000
vt 0.400000 0.400000
vt 0.400000 0.500000
vt 0.400000 0.600000
vt 0.400000 0.700000
vt 0.400000 0.800000
vt 0.500000 0.100000
vt 0.500000 0.000000
vt 0.500000 0.200000
vt 0.500000 0.300000
vt 0.500000 0.400000
vt 0.500000 0.500000
vt 0.500000 0.600000
vt 0.500000 0.700000
vt 0.500000 0.800000
vt 0.600000 0.100000
vt 0.600000 0.000000
vt 0.600000 0.200000
vt 0.600000 0.300000
vt 0.600000 0.400000
vt 0.600000 0.500000
vt 0.600000 0.600000
vt 0.600000 0.700000
vt 0.600000 0.800000
vt 0.700000 0.100000
vt 0.700000 0.000000
vt 0.700000 0.200000
vt 0.700000 0.300000
vt 0.700000 0.400000
vt 0.700000 0.500000
vt 0.700000 0.600000
vt 0.700000 0.700000
vt 0.700000 0.800000
vt 0.800000 0.100000
vt 0.800000 0.000000
vt 0.800000 0.200000
vt 0.800000 0.300000
vt 0.800000 0.400000
vt 0.800000 0.500000
vt 0.800000 0.600000
vt 0.800000 0.700000
vt 0.800000 0.800000
vt 0.900000 0.100000
vt 0.900000 0.000000
vt 0.900000 0.200000
vt 0.900000 0.300000
vt 0.900000 0.400000
vt 0.900000 0.500000
vt 0.900000 0.600000
vt 0.900000 0.700000
vt 0.900000 0.800000
vt 1.000000 0.100000
vt 1.000000 0.000000
vt 1.000000 0.200000
vt 1.000000 0.300000
vt 1.000000 0.400000
vt 1.000000 0.500000
vt 1.000000 0.600000
vt 1.000000 0.700000
vt 1.000000 0.800000
s 0
f 121/1/1 32/2/1 4/3/1 31/4/1
f 5/5/1 3/6/1 40/7/1 49/8/1
f 49/8/1 40/7/1 39/9/1 58/10/1
f 58/10/1 39/9/1 38/11/1 67/12/1
f 67/12/1 38/11/1 37/13/1 76/14/1
f 76/14/1 37/13/1 36/15/1 85/16/1
f 85/16/1 36/15/1 35/17/1 94/18/1
f 94/18/1 35/17/1 34/19/1 103/20/1
f 103/20/1 34/19/1 33/21/1 112/22/1
f 112/22/1 33/21/1 32/2/1 121/1/1
f 1/23/1 13/24/1 41/25/1 14/26/1
f 13/24/1 12/27/1 42/28/1 41/25/1
f 12/27/1 11/29/1 43/30/1 42/28/1
f 11/29/1 10/31/1 44/32/1 43/30/1
f 10/31/1 9/33/1 45/34/1 44/32/1
f 9/33/1 8/35/1 46/36/1 45/34/1
f 8/35/1 7/37/1 47/38/1 46/36/1
f 7/37/1 6/39/1 48/40/1 47/38/1
f 6/39/1 5/5/1 49/8/1 48/40/1
f 14/26/1 41/25/1 50/41/1 15/42/1
f 41/25/1 42/28/1 51/43/1 50/41/1
f 42/28/1 43/30/1 52/44/1 51/43/1
f 43/30/1 44/32/1 53/45/1 52/44/1
f 44/32/1 45/34/1 54/46/1 53/45/1
f 45/34/1 46/36/1 55/47/1 54/46/1
f 46/36/1 47/38/1 56/48/1 55/47/1
f 47/38/1 48/40/1 57/49/1 56/48/1
f 48/40/1 49/8/1 58/10/1 57/49/1
f 15/42/1 50/41/1 59/50/1 16/51/1
f 50/41/1 51/43/1 60/52/1 59/50/1
f 51/43/1 52/44/1 61/53/1 60/52/1
f 52/44/1 53/45/1 62/54/1 61/53/1
f 53/45/1 54/46/1 63/55/1 62/54/1
f 54/46/1 55/47/1 64/56/1 63/55/1
f 55/47/1 56/48/1 65/57/1 64/56/1
f 56/48/1 57/49/1 66/58/1 65/57/1
f 57/49/1 58/10/1 67/12/1 66/58/1
f 16/51/1 59/50/1 68/59/1 17/60/1
f 59/50/1 60/52/1 69/61/1 68/59/1
f 60/52/1 61/53/1 70/62/1 69/61/1
f 61/53/1 62/54/1 71/63/1 70/62/1
f 62/54/1 63/55/1 72/64/1 71/63/1
f 63/55/1 64/56/1 73/65/1 72/64/1
f 64/56/1 65/57/1 74/66/1 73/65/1
f 65/57/1 66/58/1 75/67/1 74/66/1
f 66/58/1 67/12/1 76/14/1 75/67/1
f 17/60/1 68/59/1 77/68/1 18/69/1
f 68/59/1 69/61/1 78/70/1 77/68/1
f 69/61/1 70/62/1 79/71/1 78/70/1
f 70/62/1 71/63/1 80/72/1 79/71/1
f 71/63/1 72/64/1 81/73/1 80/72/1
f 72/64/1 73/65/1 82/74/1 81/73/1
f 73/65/1 74/66/1 83/75/1 82/74/1
f 74/66/1 75/67/1 84/76/1 83/75/1
f 75/67/1 76/14/1 85/16/1 84/76/1
f 18/69/1 77/68/1 86/77/1 19/78/1
f 77/68/1 78/70/1 87/79/1 86/77/1
f 78/70/1 79/71/1 88/80/1 87/79/1
f 79/71/1 80/72/1 89/81/1 88/80/1
f 80/72/1 81/73/1 90/82/1 89/81/1
f 81/73/1 82/74/1 91/83/1 90/82/1
f 82/74/1 83/75/1 92/84/1 91/83/1
f 83/75/1 84/76/1 93/85/1 92/84/1
f 84/76/1 85/16/1 94/18/1 93/85/1
f 19/78/1 86/77/1 95/86/1 20/87/1
f 86/77/1 87/79/1 96/88/1 95/86/1
f 87/79/1 88/80/1 97/89/1 96/88/1
f 88/80/1 89/81/1 98/90/1 97/89/1
f 89/81/1 90/82/1 99/91/1 98/90/1
f 90/82/1 91/83/1 100/92/1 99/91/1
f 91/83/1 92/84/1 101/93/1 100/92/1
f 92/84/1 93/85/1 102/94/1 101/93/1
f 93/85/1 94/18/1 103/20/1 102/94/1
f 20/87/1 95/86/1 104/95/1 21/96/1
f 95/86/1 96/88/1 105/97/1 104/95/1
f 96/88/1 97/89/1 106/98/1 105/97/1
f 97/89/1 98/90/1 107/99/1 106/98/1
f 98/90/1 99/91/1 108/100/1 107/99/1
f 99/91/1 100/92/1 109/101/1 108/100/1
f 100/92/1 101/93/1 110/102/1 109/101/1
f 101/93/1 102/94/1 111/103/1 110/102/1
f 102/94/1 103/20/1 112/22/1 111/103/1
f 21/96/1 104/95/1 113/104/1 22/105/1
f 104/95/1 105/97/1 114/106/1 113/104/1
f 105/97/1 106/98/1 115/107/1 114/106/1
f 106/98/1 107/99/1 116/108/1 115/107/1
f 107/99/1 108/100/1 117/109/1 116/108/1
f 108/100/1 109/101/1 118/110/1 117/109/1
f 109/101/1 110/102/1 119/111/1 118/110/1
f 110/102/1 111/103/1 120/112/1 119/111/1
f 111/103/1 112/22/1 121/1/1 120/112/1
f 22/105/1 113/104/1 23/113/1 2/114/1
f 113/104/1 114/106/1 24/115/1 23/113/1
f 114/106/1 115/107/1 25/116/1 24/115/1
f 115/107/1 116/108/1 26/117/1 25/116/1
f 116/108/1 117/109/1 27/118/1 26/117/1
f 117/109/1 118/110/1 28/119/1 27/118/1
f 118/110/1 119/111/1 29/120/1 28/119/1
f 119/111/1 120/112/1 30/121/1 29/120/1
f 120/112/1 121/1/1 31/4/1 30/121/1
f 36/15/2 157/15/2 156/17/2 35/17/2
f 14/26/2 135/26/2 122/23/2 1/23/2
f 29/120/2 150/120/2 149/119/2 28/119/2
f 7/37/2 128/37/2 127/39/2 6/39/2
f 22/105/2 143/105/2 142/96/2 21/96/2
f 23/113/2 144/113/2 123/114/2 2/114/2
f 38/11/2 159/11/2 158/13/2 37/13/2
f 16/51/2 137/51/2 136/42/2 15/42/2
f 31/4/2 152/4/2 151/121/2 30/121/2
f 9/33/2 130/33/2 129/35/2 8/35/2
f 32/2/2 153/2/2 125/3/2 4/3/2
f 25/116/2 146/116/2 145/115/2 24/115/2
f 40/7/2 161/7/2 160/9/2 39/9/2
f 18/69/2 139/69/2 138/60/2 17/60/2
f 11/29/2 132/29/2 131/31/2 10/31/2
f 34/19/2 155/19/2 154/21/2 33/21/2
f 27/118/2 148/118/2 147/117/2 26/117/2
f 5/5/2 126/5/2 124/6/2 3/6/2
f 20/87/2 141/87/2 140/78/2 19/78/2
f 13/24/2 134/24/2 133/27/2 12/27/2
f 150/120/1 169/120/1 168/119/1 149/119/1
f 146/116/1 165/116/1 164/115/1 145/115/1
f 152/4/1 171/4/1 170/121/1 151/121/1
f 148/118/1 167/118/1 166/117/1 147/117/1
f 144/113/1 163/113/1 162/114/1 123/114/1
f 155/19/1 185/19/1 184/21/1 154/21/1
f 137/51/1 176/51/1 175/42/1 136/42/1
f 157/15/1 187/15/1 186/17/1 156/17/1
f 139/69/1 178/69/1 177/60/1 138/60/1
f 159/11/1 189/11/1 188/13/1 158/13/1
f 141/87/1 180/87/1 179/78/1 140/78/1
f 153/2/1 183/2/1 173/3/1 125/3/1
f 135/26/1 174/26/1 172/23/1 122/23/1
f 161/7/1 191/7/1 190/9/1 160/9/1
f 143/105/1 182/105/1 181/96/1 142/96/1
f 134/24/1 201/24/1 200/27/1 133/27/1
f 130/33/1 197/33/1 196/35/1 129/35/1
f 126/5/1 193/5/1 192/6/1 124/6/1
f 132/29/1 199/29/1 198/31/1 131/31/1
f 128/37/1 195/37/1 194/39/1 127/39/1
f 314/1/2 206/4/2 207/3/2 234/2/2
f 210/5/2 242/8/2 208/7/2 209/6/2
f 242/8/2 251/10/2 241/9/2 208/7/2
f 251/10/2 260/12/2 240/11/2 241/9/2
f 260/12/2 269/14/2 239/13/2 240/11/2
f 269/14/2 278/16/2 238/15/2 239/13/2
f 278/16/2 287/18/2 237/17/2 238/15/2
f 287/18/2 296/20/2 236/19/2 237/17/2
f 296/20/2 305/22/2 235/21/2 236/19/2
f 305/22/2 314/1/2 234/2/2 235/21/2
f 203/23/2 218/26/2 243/25/2 202/24/2
f 202/24/2 243/25/2 244/28/2 217/27/2
f 217/27/2 244/28/2 245/30/2 216/29/2
f 216/29/2 245/30/2 246/32/2 215/31/2
f 215/31/2 246/32/2 247/34/2 214/33/2
f 214/33/2 247/34/2 248/36/2 213/35/2
f 213/35/2 248/36/2 249/38/2 212/37/2
f 212/37/2 249/38/2 250/40/2 211/39/2
f 211/39/2 250/40/2 242/8/2 210/5/2
f 218/26/2 219/42/2 252/41/2 243/25/2
f 243/25/2 252/41/2 253/43/2 244/28/2
f 244/28/2 253/43/2 254/44/2 245/30/2
f 245/30/2 254/44/2 255/45/2 246/32/2
f 246/32/2 255/45/2 256/46/2 247/34/2
f 247/34/2 256/46/2 257/47/2 248/36/2
f 248/36/2 257/47/2 258/48/2 249/38/2
f 249/38/2 258/48/2 259/49/2 250/40/2
f 250/40/2 259/49/2 251/10/2 242/8/2
f 219/42/2 220/51/2 261/50/2 252/41/2
f 252/41/2 261/50/2 262/52/2 253/43/2
f 253/43/2 262/52/2 263/53/2 254/44/2
f 254/44/2 263/53/2 264/54/2 255/45/2
f 255/45/2 264/54/2 265/55/2 256/46/2
f 256/46/2 265/55/2 266/56/2 257/47/2
f 257/47/2 266/56/2 267/57/2 258/48/2
f 258/48/2 267/57/2 268/58/2 259/49/2
f 259/49/2 268/58/2 260/12/2 251/10/2
f 220/51/2 221/60/2 270/59/2 261/50/2
f 261/50/2 270/59/2 271/61/2 262/52/2
f 262/52/2 271/61/2 272/62/2 263/53/2
f 263/53/2 272/62/2 273/63/2 264/54/2
f 264/54/2 273/63/2 274/64/2 265/55/2
f 265/55/2 274/64/2 275/65/2 266/56/2
f 266/56/2 275/65/2 276/66/2 267/57/2
f 267/57/2 276/66/2 277/67/2 268/58/2
f 268/58/2 277/67/2 269/14/2 260/12/2
f 221/60/2 222/69/2 279/68/2 270/59/2
f 270/59/2 279/68/2 280/70/2 271/61/2
f 271/61/2 280/70/2 281/71/2 272/62/2
f 272/62/2 281/71/2 282/72/2 273/63/2
f 273/63/2 282/72/2 283/73/2 274/64/2
f 274/64/2 283/73/2 284/74/2 275/65/2
f 275/65/2 284/74/2 285/75/2 276/66/2
f 276/66/2 285/75/2 286/76/2 277/67/2
f 277/67/2 286/76/2 278/16/2 269/14/2
f 222/69/2 223/78/2 288/77/2 279/68/2
f 279/68/2 288/77/2 289/79/2 280/70/2
f 280/70/2 289/79/2 290/80/2 281/71/2
f 281/71/2 290/80/2 291/81/2 282/72/2
f 282/72/2 291/81/2 292/82/2 283/73/2
f 283/73/2 292/82/2 293/83/2 284/74/2
f 284/74/2 293/83/2 294/84/2 285/75/2
f 285/75/2 294/84/2 295/85/2 286/76/2
f 286/76/2 295/85/2 287/18/2 278/16/2
f 223/78/2 224/87/2 297/86/2 288/77/2
f 288/77/2 297/86/2 298/88/2 289/79/2
f 289/79/2 298/88/2 299/89/2 290/80/2
f 290/80/2 299/89/2 300/90/2 291/81/2
f 291/81/2 300/90/2 301/91/2 292/82/2
f 292/82/2 301/91/2 302/92/2 293/83/2
f 293/83/2 302/92/2 303/93/2 294/84/2
f 294/84/2 303/93/2 304/94/2 295/85/2
f 295/85/2 304/94/2 296/20/2 287/18/2
f 224/87/2 225/96/2 306/95/2 297/86/2
f 297/86/2 306/95/2 307/97/2 298/88/2
f 298/88/2 307/97/2 308/98/2 299/89/2
f 299/89/2 308/98/2 309/99/2 300/90/2
f 300/90/2 309/99/2 310/100/2 301/91/2
f 301/91/2 310/100/2 311/101/2 302/92/2
f 302/92/2 311/101/2 312/102/2 303/93/2
f 303/93/2 312/102/2 313/103/2 304/94/2
f 304/94/2 313/103/2 305/22/2 296/20/2
f 225/96/2 204/105/2 315/104/2 306/95/2
f 306/95/2 315/104/2 316/106/2 307/97/2
f 307/97/2 316/106/2 317/107/2 308/98/2
f 308/98/2 317/107/2 318/108/2 309/99/2
f 309/99/2 318/108/2 319/109/2 310/100/2
f 310/100/2 319/109/2 320/110/2 311/101/2
f 311/101/2 320/110/2 321/111/2 312/102/2
f 312/102/2 321/111/2 322/112/2 313/103/2
f 313/103/2 322/112/2 314/1/2 305/22/2
f 204/105/2 205/114/2 226/113/2 315/104/2
f 315/104/2 226/113/2 227/115/2 316/106/2
f 316/106/2 227/115/2 228/116/2 317/107/2
f 317/107/2 228/116/2 229/117/2 318/108/2
f 318/108/2 229/117/2 230/118/2 319/109/2
f 319/109/2 230/118/2 231/119/2 320/110/2
f 320/110/2 231/119/2 232/120/2 321/111/2
f 321/111/2 232/120/2 233/121/2 322/112/2
f 322/112/2 233/121/2 206/4/2 314/1/2
f 238/15/2 237/17/2 357/17/2 358/15/2
f 218/26/2 203/23/2 333/23/2 334/26/2
f 232/120/2 231/119/2 349/119/2 350/120/2
f 212/37/3 211/39/3 325/39/3 326/37/3
f 204/105/2 225/96/2 341/96/2 342/105/2
f 226/113/4 205/114/4 343/114/4 344/113/4
f 240/11/2 239/13/2 359/13/2 360/11/2
f 220/51/2 219/42/2 335/42/2 336/51/2
f 206/4/4 233/121/4 351/121/4 352/4/4
f 214/33/4 213/35/4 327/35/4 328/33/4
f 234/2/2 207/3/2 353/3/2 354/2/2
f 228/116/4 227/115/4 345/115/4 346/116/4
f 208/7/2 241/9/2 361/9/2 362/7/2
f 222/69/2 221/60/2 337/60/2 338/69/2
f 216/29/2 215/31/2 329/31/2 330/29/2
f 236/19/2 235/21/2 355/21/2 356/19/2
f 230/118/3 229/117/3 347/117/3 348/118/3
f 210/5/3 209/6/3 323/6/3 324/5/3
f 224/87/2 223/78/2 339/78/2 340/87/2
f 202/24/3 217/27/3 331/27/3 332/24/3
f 350/120/2 349/119/2 369/119/2 370/120/2
f 346/116/2 345/115/2 365/115/2 366/116/2
f 352/4/2 351/121/2 371/121/2 372/4/2
f 348/118/2 347/117/2 367/117/2 368/118/2
f 344/113/2 343/114/2 363/114/2 364/113/2
f 356/19/2 355/21/2 385/21/2 386/19/2
f 336/51/2 335/42/2 375/42/2 376/51/2
f 358/15/2 357/17/2 387/17/2 388/15/2
f 338/69/2 337/60/2 377/60/2 378/69/2
f 360/11/2 359/13/2 389/13/2 390/11/2
f 340/87/2 339/78/2 379/78/2 380/87/2
f 354/2/2 353/3/2 383/3/2 384/2/2
f 334/26/2 333/23/2 373/23/2 374/26/2
f 362/7/2 361/9/2 391/9/2 392/7/2
f 342/105/2 341/96/2 381/96/2 382/105/2
f 332/24/2 331/27/2 401/27/2 402/24/2
f 328/33/2 327/35/2 397/35/2 398/33/2
f 324/5/2 323/6/2 393/6/2 394/5/2
f 330/29/2 329/31/2 399/31/2 400/29/2
f 326/37/2 325/39/2 395/39/2 396/37/2
f 178/69/5 139/69/5 338/69/5 378/69/5
f 153/2/6 32/2/6 234/2/6 354/2/6
f 40/7/6 3/6/6 209/6/6 208/7/6
f 138/60/7 177/60/7 377/60/7 337/60/7
f 4/3/6 125/3/6 353/3/6 207/3/6
f 189/11/8 159/11/8 360/11/8 390/11/8
f 146/116/3 25/116/3 228/116/3 346/116/3
f 5/5/4 6/39/4 211/39/4 210/5/4
f 158/13/9 188/13/9 389/13/9 359/13/9
f 24/115/3 145/115/3 345/115/3 227/115/3
f 180/87/5 141/87/5 340/87/5 380/87/5
f 7/37/4 8/35/4 213/35/4 212/37/4
f 161/7/6 40/7/6 208/7/6 362/7/6
f 140/78/7 179/78/7 379/78/7 339/78/7
f 39/9/6 160/9/6 361/9/6 241/9/6
f 183/2/8 153/2/8 354/2/8 384/2/8
f 9/33/4 10/31/4 215/31/4 214/33/4
f 139/69/10 18/69/10 222/69/10 338/69/10
f 125/3/9 173/3/9 383/3/9 353/3/9
f 17/60/10 138/60/10 337/60/10 221/60/10
f 174/26/5 135/26/5 334/26/5 374/26/5
f 11/29/4 12/27/4 217/27/4 216/29/4
f 132/29/4 11/29/4 216/29/4 330/29/4
f 122/23/7 172/23/7 373/23/7 333/23/7
f 10/31/4 131/31/4 329/31/4 215/31/4
f 191/7/8 161/7/8 362/7/8 392/7/8
f 155/19/6 34/19/6 236/19/6 356/19/6
f 160/9/9 190/9/9 391/9/9 361/9/9
f 14/26/10 15/42/10 219/42/10 218/26/10
f 33/21/6 154/21/6 355/21/6 235/21/6
f 182/105/5 143/105/5 342/105/5 382/105/5
f 148/118/3 27/118/3 230/118/3 348/118/3
f 142/96/7 181/96/7 381/96/7 341/96/7
f 16/51/10 17/60/10 221/60/10 220/51/10
f 26/117/3 147/117/3 347/117/3 229/117/3
f 192/6/4 193/5/4 394/5/4 393/6/4
f 126/5/4 5/5/4 210/5/4 324/5/4
f 194/39/4 195/37/4 396/37/4 395/39/4
f 18/69/10 19/78/10 223/78/10 222/69/10
f 3/6/4 124/6/4 323/6/4 209/6/4
f 196/35/4 197/33/4 398/33/4 397/35/4
f 141/87/10 20/87/10 224/87/10 340/87/10
f 198/31/4 199/29/4 400/29/4 399/31/4
f 20/87/10 21/96/10 225/96/10 224/87/10
f 19/78/10 140/78/10 339/78/10 223/78/10
f 200/27/4 201/24/4 402/24/4 401/27/4
f 134/24/4 13/24/4 202/24/4 332/24/4
f 201/24/11 134/24/11 332/24/11 402/24/11
f 12/27/4 133/27/4 331/27/4 217/27/4
f 133/27/12 200/27/12 401/27/12 331/27/12
f 23/113/3 24/115/3 227/115/3 226/113/3
f 162/114/3 163/113/3 364/113/3 363/114/3
f 197/33/11 130/33/11 328/33/11 398/33/11
f 164/115/3 165/116/3 366/116/3 365/115/3
f 129/35/12 196/35/12 397/35/12 327/35/12
f 25/116/3 26/117/3 229/117/3 228/116/3
f 166/117/3 167/118/3 368/118/3 367/117/3
f 193/5/11 126/5/11 324/5/11 394/5/11
f 168/119/3 169/120/3 370/120/3 369/119/3
f 124/6/12 192/6/12 393/6/12 323/6/12
f 27/118/3 28/119/3 231/119/3 230/118/3
f 170/121/3 171/4/3 372/4/3 371/121/3
f 199/29/11 132/29/11 330/29/11 400/29/11
f 169/120/13 150/120/13 350/120/13 370/120/13
f 131/31/12 198/31/12 399/31/12 329/31/12
f 149/119/14 168/119/14 369/119/14 349/119/14
f 29/120/3 30/121/3 233/121/3 232/120/3
f 195/37/11 128/37/11 326/37/11 396/37/11
f 165/116/13 146/116/13 346/116/13 366/116/13
f 127/39/12 194/39/12 395/39/12 325/39/12
f 145/115/14 164/115/14 365/115/14 345/115/14
f 171/4/13 152/4/13 352/4/13 372/4/13
f 32/2/6 33/21/6 235/21/6 234/2/6
f 151/121/14 170/121/14 371/121/14 351/121/14
f 34/19/6 35/17/6 237/17/6 236/19/6
f 167/118/13 148/118/13 348/118/13 368/118/13
f 157/15/6 36/15/6 238/15/6 358/15/6
f 147/117/14 166/117/14 367/117/14 347/117/14
f 35/17/6 156/17/6 357/17/6 237/17/6
f 36/15/6 37/13/6 239/13/6 238/15/6
f 163/113/13 144/113/13 344/113/13 364/113/13
f 135/26/10 14/26/10 218/26/10 334/26/10
f 123/114/14 162/114/14 363/114/14 343/114/14
f 1/23/10 122/23/10 333/23/10 203/23/10
f 38/11/6 39/9/6 241/9/6 240/11/6
f 172/23/10 174/26/10 374/26/10 373/23/10
f 150/120/3 29/120/3 232/120/3 350/120/3
f 175/42/10 176/51/10 376/51/10 375/42/10
f 28/119/3 149/119/3 349/119/3 231/119/3
f 177/60/10 178/69/10 378/69/10 377/60/10
f 128/37/4 7/37/4 212/37/4 326/37/4
f 179/78/10 180/87/10 380/87/10 379/78/10
f 6/39/4 127/39/4 325/39/4 211/39/4
f 181/96/10 182/105/10 382/105/10 381/96/10
f 143/105/10 22/105/10 204/105/10 342/105/10
f 173/3/6 183/2/6 384/2/6 383/3/6
f 21/96/10 142/96/10 341/96/10 225/96/10
f 184/21/6 185/19/6 386/19/6 385/21/6
f 144/113/3 23/113/3 226/113/3 344/113/3
f 186/17/6 187/15/6 388/15/6 387/17/6
f 2/114/3 123/114/3 343/114/3 205/114/3
f 188/13/6 189/11/6 390/11/6 389/13/6
f 159/11/6 38/11/6 240/11/6 360/11/6
f 190/9/6 191/7/6 392/7/6 391/9/6
f 37/13/6 158/13/6 359/13/6 239/13/6
f 185/19/8 155/19/8 356/19/8 386/19/8
f 137/51/10 16/51/10 220/51/10 336/51/10
f 154/21/9 184/21/9 385/21/9 355/21/9
f 15/42/10 136/42/10 335/42/10 219/42/10
f 176/51/5 137/51/5 336/51/5 376/51/5
f 152/4/3 31/4/3 206/4/3 352/4/3
f 136/42/7 175/42/7 375/42/7 335/42/7
f 13/24/4 1/23/4 203/23/4 202/24/4
f 30/121/3 151/121/3 351/121/3 233/121/3
f 187/15/8 157/15/8 358/15/8 388/15/8
f 22/105/10 2/114/10 205/114/10 204/105/10
f 130/33/4 9/33/4 214/33/4 328/33/4
f 156/17/9 186/17/9 387/17/9 357/17/9
f 8/35/4 129/35/4 327/35/4 213/35/4
f 31/4/3 4/3/3 207/3/3 206/4/3
