# Blender 5.1.1
# www.blender.org
mtllib water.mtl
o Cube.001
v -2.093808 -0.000000 1.941044
v -2.350977 -0.000000 1.913889
v -2.576695 -0.000000 1.837217
v -2.755825 -0.000000 1.717797
v -2.870834 -0.000000 1.567318
v -2.911566 -0.000000 1.395872
v -2.350977 -0.000000 -1.913889
v -2.093808 -0.000000 -1.941044
v -2.576695 -0.000000 -1.837217
v -2.755825 -0.000000 -1.717797
v -2.870834 -0.000000 -1.567318
v -2.911566 -0.000000 -1.395872
v 2.870834 -0.000000 -1.567318
v 2.911566 -0.000000 -1.395872
v 2.755825 -0.000000 -1.717797
v 2.576695 -0.000000 -1.837217
v 2.350977 -0.000000 -1.913889
v 2.093808 -0.000000 -1.941044
v 2.350977 -0.000000 1.913889
v 2.093808 -0.000000 1.941044
v 2.576695 -0.000000 1.837217
v 2.755825 -0.000000 1.717797
v 2.870834 -0.000000 1.567318
v 2.911566 -0.000000 1.395872
v -2.093808 -0.628130 1.941044
v -2.350977 -0.628130 1.913889
v -2.576695 -0.628130 1.837217
v -2.755825 -0.628130 1.717797
v -2.870834 -0.628130 1.567318
v -2.911566 -0.628130 1.395872
v -2.350977 -0.628130 -1.913889
v -2.093808 -0.628130 -1.941044
v -2.576695 -0.628130 -1.837217
v -2.755825 -0.628130 -1.717797
v -2.870834 -0.628130 -1.567318
v -2.911566 -0.628130 -1.395872
v 2.870834 -0.628130 -1.567318
v 2.911566 -0.628130 -1.395872
v 2.755825 -0.628130 -1.717797
v 2.576695 -0.628130 -1.837217
v 2.350977 -0.628130 -1.913889
v 2.093808 -0.628130 -1.941044
v 2.350977 -0.628130 1.913889
v 2.093808 -0.628130 1.941044
v 2.576695 -0.628130 1.837217
v 2.755825 -0.628130 1.717797
v 2.870834 -0.628130 1.567318
v 2.911566 -0.628130 1.395872
vn -0.0000 -1.0000 -0.0000
vn -0.0000 1.0000 -0.0000
vn 0.0524 -0.0000 -0.9986
vn -0.0524 -0.0000 -0.9986
vn -0.2117 -0.0000 0.9773
vn -0.0524 -0.0000 0.9986
vn 0.4359 -0.0000 0.9000
vn 0.6761 -0.0000 0.7368
vn -0.9931 -0.0000 -0.1172
vn -0.9931 -0.0000 0.1172
vn 0.2117 -0.0000 -0.9773
vn -0.2117 -0.0000 -0.9773
vn 0.8989 -0.0000 0.4381
vn 0.0524 -0.0000 0.9986
vn 0.4359 -0.0000 -0.9000
vn -0.4359 -0.0000 -0.9000
vn 0.9931 -0.0000 0.1172
vn 0.6761 -0.0000 -0.7368
vn -0.6761 -0.0000 -0.7368
vn -0.8989 -0.0000 0.4381
vn 0.8989 -0.0000 -0.4381
vn -0.8989 -0.0000 -0.4381
vn -0.6761 -0.0000 0.7368
vn 0.9931 -0.0000 -0.1172
vn -0.4359 -0.0000 0.9000
vn 0.2117 -0.0000 0.9773
vt 0.627805 0.537219
vt 0.627805 0.712781
vt 0.628185 0.723676
vt 0.629723 0.734949
vt 0.632199 0.752885
vt 0.635412 0.762475
vt 0.640256 0.768875
vt 0.836940 0.746515
vt 0.847858 0.744625
vt 0.857270 0.739829
vt 0.864729 0.732370
vt 0.869512 0.722971
vt 0.871190 0.712264
vt 0.871190 0.537736
vt 0.869512 0.527029
vt 0.864729 0.517630
vt 0.857270 0.510171
vt 0.847858 0.505375
vt 0.836940 0.503485
vt 0.640256 0.481125
vt 0.635412 0.487525
vt 0.632199 0.497115
vt 0.629723 0.515051
vt 0.628185 0.526324
s 1
usemtl waves
f 14/1/1 24/2/1 23/3/1 22/4/1 21/5/1 19/6/1 20/7/1 1/8/1 2/9/1 3/10/1 4/11/1 5/12/1 6/13/1 12/14/1 11/15/1 10/16/1 9/17/1 7/18/1 8/19/1 18/20/1 17/21/1 16/22/1 15/23/1 13/24/1
usemtl other
f 38/1/2 37/24/2 39/23/2 40/22/2 41/21/2 42/20/2 32/19/2 31/18/2 33/17/2 34/16/2 35/15/2 36/14/2 30/13/2 29/12/2 28/11/2 27/10/2 26/9/2 25/8/2 44/7/2 43/6/2 45/5/2 46/4/2 47/3/2 48/2/2
f 1/8/3 20/7/4 44/7/4 25/8/3
f 17/21/5 18/20/6 42/20/6 41/21/5
f 9/17/7 10/16/8 34/16/8 33/17/7
f 24/2/9 14/1/10 38/1/10 48/2/9
f 2/9/11 1/8/3 25/8/3 26/9/11
f 20/7/4 19/6/12 43/6/12 44/7/4
f 10/16/8 11/15/13 35/15/13 34/16/8
f 18/20/6 8/19/14 32/19/14 42/20/6
f 3/10/15 2/9/11 26/9/11 27/10/15
f 19/6/12 21/5/16 45/5/16 43/6/12
f 11/15/13 12/14/17 36/14/17 35/15/13
f 4/11/18 3/10/15 27/10/15 28/11/18
f 21/5/16 22/4/19 46/4/19 45/5/16
f 14/1/10 13/24/20 37/24/20 38/1/10
f 5/12/21 4/11/18 28/11/18 29/12/21
f 22/4/19 23/3/22 47/3/22 46/4/19
f 13/24/20 15/23/23 39/23/23 37/24/20
f 6/13/24 5/12/21 29/12/21 30/13/24
f 23/3/22 24/2/9 48/2/9 47/3/22
f 15/23/23 16/22/25 40/22/25 39/23/23
f 8/19/14 7/18/26 31/18/26 32/19/14
f 12/14/17 6/13/24 30/13/24 36/14/17
f 16/22/25 17/21/5 41/21/5 40/22/25
f 7/18/26 9/17/7 33/17/7 31/18/26
