# Blender 5.1.2
# www.blender.org
mtllib water.mtl
o Cube.002
v 2.903268 -0.349664 -1.924255
v 2.373822 -0.465764 -1.924667
v 2.908538 -0.466091 -1.524948
v 2.918342 0.355561 -1.941902
v 2.916017 0.044371 -1.939213
v 2.910275 -0.201947 -1.932588
v 2.908215 -0.463563 -1.728365
v 2.906134 -0.446041 -1.850342
v 2.903349 -0.402970 -1.907185
v 1.923352 -0.465769 -1.924666
v 1.346901 -0.465769 -1.924666
v 0.682609 -0.465769 -1.924666
v 2.892508 -0.402829 -1.921849
v 2.833978 -0.445698 -1.922314
v 2.671321 -0.463219 -1.924314
v 2.373867 0.353679 -1.959447
v 2.373868 0.029288 -1.955575
v 2.373862 -0.251237 -1.945070
v 2.908538 -0.466095 -0.427832
v 2.908538 -0.466095 -0.856511
v 2.908538 -0.466095 -1.229329
v 2.373608 -0.598475 -1.888818
v 2.372963 -0.661789 -1.825986
v 2.939508 0.353666 -1.524968
v 2.936062 0.029238 -1.524969
v 2.926712 -0.251369 -1.524966
v 2.873507 -0.599150 -1.524829
v 2.799122 -0.662368 -1.524399
v 2.672010 -0.249793 -1.944595
v 2.672216 0.029761 -1.955048
v 2.672266 0.353738 -1.958902
v 2.838614 -0.239737 -1.941467
v 2.840021 0.033071 -1.951537
v 2.840427 0.354151 -1.955269
v 2.902892 -0.217396 -1.935859
v 2.905409 0.040149 -1.945036
v 2.906646 0.355035 -1.948453
v 2.798947 -0.662419 -1.229330
v 2.873489 -0.599173 -1.229329
v 2.798947 -0.662419 -0.856510
v 2.873489 -0.599173 -0.856511
v 2.798947 -0.662419 -0.427832
v 2.873489 -0.599173 -0.427832
v 2.926712 -0.251370 -1.229330
v 2.936062 0.029238 -1.229330
v 2.939508 0.353666 -1.229330
v 2.926711 -0.251370 -0.856511
v 2.936062 0.029238 -0.856510
v 2.939508 0.353666 -0.856510
v 2.926712 -0.251370 -0.427832
v 2.936062 0.029238 -0.427832
v 2.939508 0.353666 -0.427832
v 0.682609 -0.251238 -1.945069
v 0.682609 0.029288 -1.955575
v 0.682609 0.353679 -1.959447
v 1.346901 -0.251238 -1.945070
v 1.346901 0.029288 -1.955575
v 1.346901 0.353679 -1.959447
v 1.923352 -0.251238 -1.945069
v 1.923352 0.029288 -1.955575
v 1.923352 0.353679 -1.959447
v 0.682609 -0.598501 -1.888801
v 1.346901 -0.598501 -1.888801
v 1.923352 -0.598501 -1.888801
v 0.682609 -0.661835 -1.825866
v 1.346901 -0.661835 -1.825866
v 1.923352 -0.661835 -1.825866
v 2.916439 -0.217491 -1.914741
v 2.924497 0.040111 -1.918041
v 2.927507 0.355025 -1.919554
v 2.923370 -0.239879 -1.852607
v 2.932351 0.033021 -1.853847
v 2.935669 0.354138 -1.854345
v 2.926285 -0.249930 -1.728703
v 2.935591 0.029712 -1.728869
v 2.939021 0.353725 -1.728930
v 2.668139 -0.595080 -1.888887
v 2.819327 -0.573165 -1.891071
v 2.882589 -0.515225 -1.896887
v 2.660604 -0.658172 -1.827371
v 2.807279 -0.636240 -1.831969
v 2.875389 -0.573586 -1.841800
v 2.801013 -0.658669 -1.721811
v 2.873568 -0.595783 -1.726718
v 0.000000 -0.465769 -1.924666
v 0.000000 -0.251238 -1.945069
v 0.000000 0.029288 -1.955575
v 0.000000 0.353679 -1.959447
v -0.000000 -0.661835 -1.825867
v 0.000000 -0.598501 -1.888801
v -2.903268 -0.349664 -1.924255
v -2.373822 -0.465764 -1.924667
v -2.908538 -0.466091 -1.524948
v -2.918342 0.355561 -1.941902
v -2.916017 0.044371 -1.939213
v -2.910275 -0.201947 -1.932588
v -2.908215 -0.463563 -1.728365
v -2.906134 -0.446041 -1.850342
v -2.903349 -0.402970 -1.907185
v -1.923352 -0.465769 -1.924666
v -1.346901 -0.465769 -1.924666
v -0.682609 -0.465769 -1.924666
v -2.892508 -0.402829 -1.921849
v -2.833978 -0.445698 -1.922314
v -2.671321 -0.463219 -1.924314
v -2.373867 0.353679 -1.959447
v -2.373868 0.029288 -1.955575
v -2.373862 -0.251237 -1.945070
v -2.908538 -0.466095 -0.427832
v -2.908538 -0.466095 -0.856511
v -2.908538 -0.466095 -1.229329
v -2.373608 -0.598475 -1.888818
v -2.372963 -0.661789 -1.825986
v -2.939508 0.353666 -1.524968
v -2.936062 0.029238 -1.524969
v -2.926712 -0.251369 -1.524966
v -2.873507 -0.599150 -1.524829
v -2.799122 -0.662368 -1.524399
v -2.672010 -0.249793 -1.944595
v -2.672216 0.029761 -1.955048
v -2.672266 0.353738 -1.958902
v -2.838614 -0.239737 -1.941467
v -2.840021 0.033071 -1.951537
v -2.840427 0.354151 -1.955269
v -2.902892 -0.217396 -1.935859
v -2.905409 0.040149 -1.945036
v -2.906646 0.355035 -1.948453
v -2.798947 -0.662419 -1.229330
v -2.873489 -0.599173 -1.229329
v -2.798947 -0.662419 -0.856510
v -2.873489 -0.599173 -0.856511
v -2.798947 -0.662419 -0.427832
v -2.873489 -0.599173 -0.427832
v -2.926712 -0.251370 -1.229330
v -2.936062 0.029238 -1.229330
v -2.939508 0.353666 -1.229330
v -2.926711 -0.251370 -0.856511
v -2.936062 0.029238 -0.856510
v -2.939508 0.353666 -0.856510
v -2.926712 -0.251370 -0.427832
v -2.936062 0.029238 -0.427832
v -2.939508 0.353666 -0.427832
v -0.682609 -0.251238 -1.945069
v -0.682609 0.029288 -1.955575
v -0.682609 0.353679 -1.959447
v -1.346901 -0.251238 -1.945070
v -1.346901 0.029288 -1.955575
v -1.346901 0.353679 -1.959447
v -1.923352 -0.251238 -1.945069
v -1.923352 0.029288 -1.955575
v -1.923352 0.353679 -1.959447
v -0.682609 -0.598501 -1.888801
v -1.346901 -0.598501 -1.888801
v -1.923352 -0.598501 -1.888801
v -0.682609 -0.661835 -1.825866
v -1.346901 -0.661835 -1.825866
v -1.923352 -0.661835 -1.825866
v -2.916439 -0.217491 -1.914741
v -2.924497 0.040111 -1.918041
v -2.927507 0.355025 -1.919554
v -2.923370 -0.239879 -1.852607
v -2.932351 0.033021 -1.853847
v -2.935669 0.354138 -1.854345
v -2.926285 -0.249930 -1.728703
v -2.935591 0.029712 -1.728869
v -2.939021 0.353725 -1.728930
v -2.668139 -0.595080 -1.888887
v -2.819327 -0.573165 -1.891071
v -2.882589 -0.515225 -1.896887
v -2.660604 -0.658172 -1.827371
v -2.807279 -0.636240 -1.831969
v -2.875389 -0.573586 -1.841800
v -2.801013 -0.658669 -1.721811
v -2.873568 -0.595783 -1.726718
v 2.908538 -0.466095 0.000000
v 2.873489 -0.599173 -0.000000
v 2.798946 -0.662419 0.000000
v 2.939508 0.353666 0.000000
v 2.936062 0.029238 0.000000
v 2.926711 -0.251370 0.000000
v -2.908538 -0.466095 -0.000000
v -2.873489 -0.599173 0.000000
v -2.798946 -0.662419 -0.000000
v -2.939508 0.353666 0.000000
v -2.936062 0.029238 0.000000
v -2.926711 -0.251370 -0.000000
v 2.903268 -0.349664 1.924255
v 2.373822 -0.465764 1.924667
v 2.908538 -0.466091 1.524948
v 2.918342 0.355561 1.941902
v 2.916017 0.044371 1.939213
v 2.910275 -0.201947 1.932588
v 2.908215 -0.463563 1.728365
v 2.906134 -0.446041 1.850342
v 2.903349 -0.402970 1.907185
v 1.923352 -0.465769 1.924666
v 1.346901 -0.465769 1.924666
v 0.682609 -0.465769 1.924666
v 2.892508 -0.402829 1.921849
v 2.833978 -0.445698 1.922314
v 2.671321 -0.463219 1.924314
v 2.373867 0.353679 1.959447
v 2.373868 0.029288 1.955575
v 2.373862 -0.251237 1.945070
v 2.908538 -0.466095 0.427832
v 2.908538 -0.466095 0.856511
v 2.908538 -0.466095 1.229329
v 2.373608 -0.598475 1.888818
v 2.372963 -0.661789 1.825986
v 2.939508 0.353666 1.524968
v 2.936062 0.029238 1.524969
v 2.926712 -0.251369 1.524966
v 2.873507 -0.599150 1.524829
v 2.799122 -0.662368 1.524399
v 2.672010 -0.249793 1.944595
v 2.672216 0.029761 1.955048
v 2.672266 0.353738 1.958902
v 2.838614 -0.239737 1.941467
v 2.840021 0.033071 1.951537
v 2.840427 0.354151 1.955269
v 2.902892 -0.217396 1.935859
v 2.905409 0.040149 1.945036
v 2.906646 0.355035 1.948453
v 2.798947 -0.662419 1.229330
v 2.873489 -0.599173 1.229329
v 2.798947 -0.662419 0.856510
v 2.873489 -0.599173 0.856511
v 2.798947 -0.662419 0.427832
v 2.873489 -0.599173 0.427832
v 2.926712 -0.251370 1.229330
v 2.936062 0.029238 1.229330
v 2.939508 0.353666 1.229330
v 2.926711 -0.251370 0.856511
v 2.936062 0.029238 0.856510
v 2.939508 0.353666 0.856510
v 2.926712 -0.251370 0.427832
v 2.936062 0.029238 0.427832
v 2.939508 0.353666 0.427832
v 0.682609 -0.251238 1.945069
v 0.682609 0.029288 1.955575
v 0.682609 0.353679 1.959447
v 1.346901 -0.251238 1.945070
v 1.346901 0.029288 1.955575
v 1.346901 0.353679 1.959447
v 1.923352 -0.251238 1.945069
v 1.923352 0.029288 1.955575
v 1.923352 0.353679 1.959447
v 0.682609 -0.598501 1.888801
v 1.346901 -0.598501 1.888801
v 1.923352 -0.598501 1.888801
v 0.682609 -0.661835 1.825866
v 1.346901 -0.661835 1.825866
v 1.923352 -0.661835 1.825866
v 2.916439 -0.217491 1.914741
v 2.924497 0.040111 1.918041
v 2.927507 0.355025 1.919554
v 2.923370 -0.239879 1.852607
v 2.932351 0.033021 1.853847
v 2.935669 0.354138 1.854345
v 2.926285 -0.249930 1.728703
v 2.935591 0.029712 1.728869
v 2.939021 0.353725 1.728930
v 2.668139 -0.595080 1.888887
v 2.819327 -0.573165 1.891071
v 2.882589 -0.515225 1.896887
v 2.660604 -0.658172 1.827371
v 2.807279 -0.636240 1.831969
v 2.875389 -0.573586 1.841800
v 2.801013 -0.658669 1.721811
v 2.873568 -0.595783 1.726718
v 0.000000 -0.465769 1.924666
v -0.000000 -0.251238 1.945069
v -0.000000 0.029288 1.955575
v 0.000000 0.353679 1.959447
v 0.000000 -0.661835 1.825867
v 0.000000 -0.598501 1.888801
v -2.903268 -0.349664 1.924255
v -2.373822 -0.465764 1.924667
v -2.908538 -0.466091 1.524948
v -2.918342 0.355561 1.941902
v -2.916017 0.044371 1.939213
v -2.910275 -0.201947 1.932588
v -2.908215 -0.463563 1.728365
v -2.906134 -0.446041 1.850342
v -2.903349 -0.402970 1.907185
v -1.923352 -0.465769 1.924666
v -1.346901 -0.465769 1.924666
v -0.682609 -0.465769 1.924666
v -2.892508 -0.402829 1.921849
v -2.833978 -0.445698 1.922314
v -2.671321 -0.463219 1.924314
v -2.373867 0.353679 1.959447
v -2.373868 0.029288 1.955575
v -2.373862 -0.251237 1.945070
v -2.908538 -0.466095 0.427832
v -2.908538 -0.466095 0.856511
v -2.908538 -0.466095 1.229329
v -2.373608 -0.598475 1.888818
v -2.372963 -0.661789 1.825986
v -2.939508 0.353666 1.524968
v -2.936062 0.029238 1.524969
v -2.926712 -0.251369 1.524966
v -2.873507 -0.599150 1.524829
v -2.799122 -0.662368 1.524399
v -2.672010 -0.249793 1.944595
v -2.672216 0.029761 1.955048
v -2.672266 0.353738 1.958902
v -2.838614 -0.239737 1.941467
v -2.840021 0.033071 1.951537
v -2.840427 0.354151 1.955269
v -2.902892 -0.217396 1.935859
v -2.905409 0.040149 1.945036
v -2.906646 0.355035 1.948453
v -2.798947 -0.662419 1.229330
v -2.873489 -0.599173 1.229329
v -2.798947 -0.662419 0.856510
v -2.873489 -0.599173 0.856511
v -2.798947 -0.662419 0.427832
v -2.873489 -0.599173 0.427832
v -2.926712 -0.251370 1.229330
v -2.936062 0.029238 1.229330
v -2.939508 0.353666 1.229330
v -2.926711 -0.251370 0.856511
v -2.936062 0.029238 0.856510
v -2.939508 0.353666 0.856510
v -2.926712 -0.251370 0.427832
v -2.936062 0.029238 0.427832
v -2.939508 0.353666 0.427832
v -0.682609 -0.251238 1.945069
v -0.682609 0.029288 1.955575
v -0.682609 0.353679 1.959447
v -1.346901 -0.251238 1.945070
v -1.346901 0.029288 1.955575
v -1.346901 0.353679 1.959447
v -1.923352 -0.251238 1.945069
v -1.923352 0.029288 1.955575
v -1.923352 0.353679 1.959447
v -0.682609 -0.598501 1.888801
v -1.346901 -0.598501 1.888801
v -1.923352 -0.598501 1.888801
v -0.682609 -0.661835 1.825866
v -1.346901 -0.661835 1.825866
v -1.923352 -0.661835 1.825866
v -2.916439 -0.217491 1.914741
v -2.924497 0.040111 1.918041
v -2.927507 0.355025 1.919554
v -2.923370 -0.239879 1.852607
v -2.932351 0.033021 1.853847
v -2.935669 0.354138 1.854345
v -2.926285 -0.249930 1.728703
v -2.935591 0.029712 1.728869
v -2.939021 0.353725 1.728930
v -2.668139 -0.595080 1.888887
v -2.819327 -0.573165 1.891071
v -2.882589 -0.515225 1.896887
v -2.660604 -0.658172 1.827371
v -2.807279 -0.636240 1.831969
v -2.875389 -0.573586 1.841800
v -2.801013 -0.658669 1.721811
v -2.873568 -0.595783 1.726718
v 2.918459 0.478775 -1.942042
v 2.373867 0.477567 -1.959645
v 2.939684 0.477557 -1.524968
v 2.672266 0.477605 -1.959100
v 2.840439 0.477870 -1.955461
v 2.906700 0.478438 -1.948631
v 2.939684 0.477557 -1.229330
v 2.939684 0.477557 -0.856511
v 2.939684 0.477557 -0.427832
v 0.682609 0.477567 -1.959645
v 1.346901 0.477567 -1.959645
v 1.923352 0.477567 -1.959645
v 2.927662 0.478430 -1.919629
v 2.935839 0.477861 -1.854367
v 2.939196 0.477595 -1.728933
v 0.000000 0.477567 -1.959645
v -2.918459 0.478775 -1.942042
v -2.373867 0.477567 -1.959645
v -2.939684 0.477557 -1.524968
v -2.672266 0.477605 -1.959100
v -2.840439 0.477870 -1.955461
v -2.906700 0.478438 -1.948631
v -2.939684 0.477557 -1.229330
v -2.939684 0.477557 -0.856511
v -2.939684 0.477557 -0.427832
v -0.682609 0.477567 -1.959645
v -1.346901 0.477567 -1.959645
v -1.923352 0.477567 -1.959645
v -2.927662 0.478430 -1.919629
v -2.935839 0.477861 -1.854367
v -2.939196 0.477595 -1.728933
v -2.939684 0.477557 0.000000
v 2.939684 0.477557 0.000000
v 2.918459 0.478775 1.942042
v 2.373867 0.477567 1.959645
v 2.939684 0.477557 1.524968
v 2.672266 0.477605 1.959100
v 2.840439 0.477870 1.955461
v 2.906700 0.478438 1.948631
v 2.939684 0.477557 1.229330
v 2.939684 0.477557 0.856511
v 2.939684 0.477557 0.427832
v 0.682609 0.477567 1.959645
v 1.346901 0.477567 1.959645
v 1.923352 0.477567 1.959645
v 2.927662 0.478430 1.919629
v 2.935839 0.477861 1.854367
v 2.939196 0.477595 1.728933
v 0.000000 0.477567 1.959645
v -2.918459 0.478775 1.942042
v -2.373867 0.477567 1.959645
v -2.939684 0.477557 1.524968
v -2.672266 0.477605 1.959100
v -2.840439 0.477870 1.955461
v -2.906700 0.478438 1.948631
v -2.939684 0.477557 1.229330
v -2.939684 0.477557 0.856511
v -2.939684 0.477557 0.427832
v -0.682609 0.477567 1.959645
v -1.346901 0.477567 1.959645
v -1.923352 0.477567 1.959645
v -2.927662 0.478430 1.919629
v -2.935839 0.477861 1.854367
v -2.939196 0.477595 1.728933
vn -0.0122 0.0679 0.9976
vn -0.0594 0.0696 0.9958
vn -0.0612 0.0257 0.9978
vn -0.0116 0.0249 0.9996
vn -0.0616 0.0067 0.9981
vn -0.0117 0.0067 0.9999
vn -0.2259 0.0627 0.9721
vn -0.1013 0.0207 0.9946
vn -0.1019 0.0063 0.9948
vn -0.0013 0.1803 0.9836
vn -0.0155 0.1863 0.9824
vn -0.0010 0.0663 0.9978
vn -0.0009 0.0247 0.9997
vn -0.0009 0.0068 1.0000
vn -0.4825 0.0304 0.8754
vn -0.4858 0.0163 0.8739
vn -0.4880 0.0059 0.8728
vn -0.4878 0.0068 0.8729
vn -0.4756 0.0375 0.8789
vn -0.1043 0.1023 0.9893
vn -0.3503 0.0809 0.9331
vn -0.0892 0.1894 0.9778
vn -0.6471 0.7624 -0.0001
vn -0.6470 0.7625 -0.0000
vn -0.8142 0.5806 -0.0000
vn -0.8143 0.5805 -0.0000
vn -0.6491 0.7607 0.0050
vn -0.8130 0.5823 0.0041
vn -0.9852 0.1713 -0.0000
vn -0.9851 0.1721 0.0018
vn -0.9852 0.1714 -0.0000
vn -0.9983 0.0589 -0.0000
vn -0.9998 0.0220 -0.0000
vn -1.0000 0.0060 -0.0000
vn -0.9983 0.0590 0.0013
vn -0.9998 0.0220 0.0012
vn -1.0000 0.0060 0.0012
vn -0.0000 0.0661 0.9978
vn -0.0000 0.0247 0.9997
vn -0.0000 0.0068 1.0000
vn -0.0000 0.1795 0.9838
vn -0.0000 0.5284 0.8490
vn -0.0000 0.7049 0.7093
vn -0.0000 0.7047 0.7095
vn -0.0000 0.5283 0.8490
vn -0.0026 0.5302 0.8479
vn -0.0032 0.7031 0.7111
vn -0.9730 0.0562 0.2238
vn -0.9952 0.0617 0.0764
vn -0.9969 0.0226 0.0753
vn -0.9678 0.0225 0.2508
vn -0.9971 0.0059 0.0754
vn -0.9668 0.0059 0.2556
vn -0.9981 0.0604 0.0154
vn -0.9997 0.0221 0.0144
vn -0.9999 0.0060 0.0145
vn -0.9435 0.0767 0.3223
vn -0.9128 0.1526 0.3789
vn -0.9325 0.0373 0.3593
vn -0.9277 0.0179 0.3730
vn -0.9257 0.0057 0.3782
vn -0.9839 0.1777 0.0206
vn -0.9800 0.1739 0.0964
vn -0.0400 0.5551 0.8308
vn -0.0363 0.6997 0.7135
vn -0.0861 0.6954 0.7134
vn -0.0597 0.4178 0.9066
vn -0.5095 0.6309 0.5851
vn -0.6430 0.7417 0.1907
vn -0.7271 0.5785 0.3696
vn -0.6529 0.7555 0.0539
vn -0.7942 0.6048 0.0593
vn -0.1570 0.2405 0.9579
vn -0.7878 0.1950 0.5843
vn -0.9609 0.2193 0.1693
vn 0.0122 0.0679 0.9976
vn 0.0116 0.0249 0.9996
vn 0.0612 0.0257 0.9978
vn 0.0594 0.0696 0.9958
vn 0.0117 0.0067 0.9999
vn 0.0616 0.0067 0.9981
vn 0.1013 0.0207 0.9946
vn 0.2259 0.0627 0.9721
vn 0.1019 0.0063 0.9948
vn 0.0013 0.1803 0.9836
vn 0.0010 0.0663 0.9978
vn 0.0155 0.1863 0.9824
vn 0.0009 0.0247 0.9997
vn 0.0009 0.0068 1.0000
vn 0.4825 0.0304 0.8754
vn 0.4878 0.0068 0.8729
vn 0.4880 0.0059 0.8728
vn 0.4858 0.0163 0.8739
vn 0.4756 0.0375 0.8789
vn 0.1043 0.1023 0.9893
vn 0.3503 0.0809 0.9331
vn 0.0892 0.1894 0.9778
vn 0.6471 0.7624 -0.0001
vn 0.8143 0.5805 -0.0000
vn 0.8142 0.5806 -0.0000
vn 0.6470 0.7625 -0.0000
vn 0.6491 0.7607 0.0050
vn 0.8130 0.5823 0.0041
vn 0.9851 0.1721 0.0018
vn 0.9852 0.1713 -0.0000
vn 0.9852 0.1714 -0.0000
vn 0.9983 0.0589 -0.0000
vn 0.9998 0.0220 -0.0000
vn 1.0000 0.0060 -0.0000
vn 0.9983 0.0590 0.0013
vn 0.9998 0.0220 0.0012
vn 1.0000 0.0060 0.0012
vn 0.0026 0.5302 0.8479
vn 0.0032 0.7031 0.7111
vn 0.9730 0.0562 0.2238
vn 0.9678 0.0225 0.2508
vn 0.9969 0.0226 0.0753
vn 0.9952 0.0617 0.0764
vn 0.9668 0.0059 0.2556
vn 0.9971 0.0059 0.0754
vn 0.9997 0.0221 0.0144
vn 0.9981 0.0604 0.0154
vn 0.9999 0.0060 0.0145
vn 0.9435 0.0767 0.3223
vn 0.9325 0.0373 0.3593
vn 0.9128 0.1526 0.3789
vn 0.9277 0.0179 0.3730
vn 0.9257 0.0057 0.3783
vn 0.9839 0.1777 0.0206
vn 0.9800 0.1739 0.0964
vn 0.0400 0.5551 0.8308
vn 0.0597 0.4178 0.9066
vn 0.0861 0.6954 0.7134
vn 0.0363 0.6997 0.7135
vn 0.5095 0.6309 0.5851
vn 0.7271 0.5785 0.3696
vn 0.6430 0.7417 0.1907
vn 0.7942 0.6048 0.0593
vn 0.6529 0.7555 0.0539
vn 0.1570 0.2405 0.9579
vn 0.7877 0.1950 0.5843
vn 0.9609 0.2193 0.1693
vn -0.0122 0.0679 -0.9976
vn -0.0116 0.0249 -0.9996
vn -0.0612 0.0257 -0.9978
vn -0.0594 0.0696 -0.9958
vn -0.0117 0.0067 -0.9999
vn -0.0616 0.0067 -0.9981
vn -0.1013 0.0207 -0.9946
vn -0.2259 0.0627 -0.9721
vn -0.1019 0.0063 -0.9948
vn -0.0013 0.1803 -0.9836
vn -0.0010 0.0663 -0.9978
vn -0.0155 0.1863 -0.9824
vn -0.0009 0.0247 -0.9997
vn -0.0009 0.0068 -1.0000
vn -0.4825 0.0304 -0.8754
vn -0.4878 0.0068 -0.8729
vn -0.4880 0.0059 -0.8728
vn -0.4858 0.0163 -0.8739
vn -0.4756 0.0375 -0.8789
vn -0.1043 0.1023 -0.9893
vn -0.3503 0.0809 -0.9331
vn -0.0892 0.1894 -0.9778
vn -0.6471 0.7624 0.0001
vn -0.6491 0.7607 -0.0050
vn -0.8130 0.5823 -0.0041
vn -0.9851 0.1721 -0.0018
vn -0.9983 0.0590 -0.0013
vn -0.9998 0.0220 -0.0012
vn -1.0000 0.0060 -0.0012
vn -0.0000 0.0661 -0.9978
vn -0.0000 0.0247 -0.9997
vn -0.0000 0.0068 -1.0000
vn -0.0000 0.1795 -0.9838
vn -0.0000 0.5284 -0.8490
vn -0.0000 0.7049 -0.7093
vn -0.0000 0.5283 -0.8490
vn -0.0000 0.7047 -0.7095
vn -0.0026 0.5302 -0.8479
vn -0.0032 0.7031 -0.7111
vn -0.9730 0.0562 -0.2238
vn -0.9678 0.0225 -0.2508
vn -0.9969 0.0226 -0.0753
vn -0.9952 0.0617 -0.0764
vn -0.9668 0.0059 -0.2556
vn -0.9971 0.0059 -0.0754
vn -0.9997 0.0221 -0.0144
vn -0.9981 0.0604 -0.0154
vn -0.9999 0.0060 -0.0145
vn -0.9435 0.0767 -0.3223
vn -0.9325 0.0373 -0.3593
vn -0.9128 0.1526 -0.3789
vn -0.9277 0.0179 -0.3730
vn -0.9257 0.0057 -0.3783
vn -0.9839 0.1777 -0.0206
vn -0.9800 0.1739 -0.0964
vn -0.0400 0.5551 -0.8308
vn -0.0597 0.4178 -0.9066
vn -0.0861 0.6954 -0.7134
vn -0.0363 0.6997 -0.7135
vn -0.5095 0.6309 -0.5851
vn -0.7271 0.5785 -0.3696
vn -0.6430 0.7417 -0.1907
vn -0.7942 0.6048 -0.0593
vn -0.6529 0.7555 -0.0539
vn -0.1570 0.2405 -0.9579
vn -0.7877 0.1950 -0.5843
vn -0.9609 0.2193 -0.1693
vn 0.0122 0.0679 -0.9976
vn 0.0594 0.0696 -0.9958
vn 0.0612 0.0257 -0.9978
vn 0.0116 0.0249 -0.9996
vn 0.0616 0.0067 -0.9981
vn 0.0117 0.0067 -0.9999
vn 0.2259 0.0627 -0.9721
vn 0.1013 0.0207 -0.9946
vn 0.1019 0.0063 -0.9948
vn 0.0013 0.1803 -0.9836
vn 0.0155 0.1863 -0.9824
vn 0.0010 0.0663 -0.9978
vn 0.0009 0.0247 -0.9997
vn 0.0009 0.0068 -1.0000
vn 0.4825 0.0304 -0.8754
vn 0.4858 0.0163 -0.8739
vn 0.4880 0.0059 -0.8728
vn 0.4878 0.0068 -0.8729
vn 0.4756 0.0375 -0.8789
vn 0.1043 0.1023 -0.9893
vn 0.3503 0.0809 -0.9331
vn 0.0892 0.1894 -0.9778
vn 0.6471 0.7624 0.0001
vn 0.6491 0.7607 -0.0050
vn 0.8130 0.5823 -0.0041
vn 0.9851 0.1721 -0.0018
vn 0.9983 0.0590 -0.0013
vn 0.9998 0.0220 -0.0012
vn 1.0000 0.0060 -0.0012
vn 0.0026 0.5302 -0.8479
vn 0.0032 0.7031 -0.7111
vn 0.9730 0.0562 -0.2238
vn 0.9952 0.0617 -0.0764
vn 0.9969 0.0226 -0.0753
vn 0.9678 0.0225 -0.2508
vn 0.9971 0.0059 -0.0754
vn 0.9668 0.0059 -0.2556
vn 0.9981 0.0604 -0.0154
vn 0.9997 0.0221 -0.0144
vn 0.9999 0.0060 -0.0145
vn 0.9435 0.0767 -0.3223
vn 0.9128 0.1526 -0.3789
vn 0.9325 0.0373 -0.3593
vn 0.9277 0.0179 -0.3730
vn 0.9257 0.0057 -0.3782
vn 0.9839 0.1777 -0.0206
vn 0.9800 0.1739 -0.0964
vn 0.0400 0.5551 -0.8308
vn 0.0363 0.6997 -0.7135
vn 0.0861 0.6954 -0.7134
vn 0.0597 0.4178 -0.9066
vn 0.5095 0.6309 -0.5851
vn 0.6430 0.7417 -0.1907
vn 0.7271 0.5785 -0.3696
vn 0.6529 0.7555 -0.0539
vn 0.7942 0.6048 -0.0593
vn 0.1570 0.2405 -0.9579
vn 0.7878 0.1950 -0.5843
vn 0.9609 0.2193 -0.1693
vn -1.0000 0.0014 -0.0000
vn 1.0000 0.0014 -0.0000
vn 1.0000 0.0014 -0.0012
vn 0.9999 0.0014 -0.0146
vn 0.9971 0.0014 -0.0762
vn 0.9658 0.0014 -0.2594
vn 0.9251 0.0013 -0.3797
vn 0.0009 0.0016 -1.0000
vn -0.0000 0.0016 -1.0000
vn 0.4888 0.0015 -0.8724
vn 0.1025 0.0015 -0.9947
vn 0.0625 0.0015 -0.9980
vn 0.0117 0.0016 -0.9999
vn -0.9999 0.0014 -0.0146
vn -1.0000 0.0014 -0.0012
vn -0.9971 0.0014 -0.0762
vn -0.9658 0.0014 -0.2594
vn -0.9251 0.0013 -0.3797
vn -0.0009 0.0016 -1.0000
vn -0.4888 0.0015 -0.8724
vn -0.0625 0.0015 -0.9980
vn -0.1025 0.0015 -0.9947
vn -0.0117 0.0016 -0.9999
vn 0.9999 0.0014 0.0146
vn 1.0000 0.0014 0.0012
vn 0.9971 0.0014 0.0762
vn 0.9658 0.0014 0.2594
vn 0.9251 0.0013 0.3797
vn -0.0000 0.0016 1.0000
vn 0.0009 0.0016 1.0000
vn 0.4888 0.0015 0.8724
vn 0.0625 0.0015 0.9980
vn 0.1025 0.0015 0.9947
vn 0.0117 0.0016 0.9999
vn -1.0000 0.0014 0.0012
vn -0.9999 0.0014 0.0146
vn -0.9971 0.0014 0.0762
vn -0.9658 0.0014 0.2594
vn -0.9251 0.0013 0.3797
vn -0.0009 0.0016 1.0000
vn -0.4888 0.0015 0.8724
vn -0.1025 0.0015 0.9947
vn -0.0625 0.0015 0.9980
vn -0.0117 0.0016 0.9999
vn -0.0000 -1.0000 -0.0000
vt 0.437500 0.490151
vt 0.437500 0.495069
vt 0.500000 0.494619
vt 0.500000 0.488601
vt 0.562500 0.495069
vt 0.562500 0.490151
vt 0.437723 0.498095
vt 0.500105 0.498113
vt 0.562513 0.498095
vt 0.375000 0.492122
vt 0.375000 0.494091
vt 0.437500 0.479604
vt 0.500000 0.476949
vt 0.562500 0.479604
vt 0.500841 0.500750
vt 0.562605 0.500619
vt 0.440022 0.500620
vt 0.375000 0.498031
vt 0.375000 0.500000
vt 0.375000 0.496061
vt 0.373829 0.548167
vt 0.373829 0.571468
vt 0.389770 0.571468
vt 0.389770 0.548167
vt 0.373829 0.598261
vt 0.389770 0.598261
vt 0.373829 0.529688
vt 0.389770 0.529688
vt 0.415354 0.548167
vt 0.415354 0.529687
vt 0.415354 0.571468
vt 0.415354 0.598261
vt 0.454524 0.548043
vt 0.454524 0.571420
vt 0.505044 0.571080
vt 0.505044 0.547179
vt 0.563131 0.570256
vt 0.563131 0.544907
vt 0.454524 0.598239
vt 0.505044 0.598085
vt 0.563131 0.597690
vt 0.454524 0.529517
vt 0.505044 0.528320
vt 0.563131 0.524731
vt 0.437500 0.403865
vt 0.437500 0.432443
vt 0.500000 0.431934
vt 0.500000 0.403694
vt 0.562500 0.432443
vt 0.562500 0.403865
vt 0.437500 0.458885
vt 0.500000 0.457328
vt 0.562500 0.458885
vt 0.375000 0.376292
vt 0.375000 0.404280
vt 0.437500 0.375411
vt 0.500000 0.375220
vt 0.562500 0.375411
vt 0.375000 0.462841
vt 0.375000 0.433561
vt 0.278850 0.503577
vt 0.278568 0.508691
vt 0.306528 0.508691
vt 0.307392 0.503577
vt 0.331234 0.508691
vt 0.333748 0.503577
vt 0.251292 0.500000
vt 0.250397 0.503577
vt 0.279280 0.500000
vt 0.308561 0.500000
vt 0.337841 0.500000
vt 0.354415 0.503577
vt 0.367122 0.500000
vt 0.350432 0.508691
vt 0.250110 0.508691
vt 0.446774 0.503772
vt 0.452107 0.508703
vt 0.504204 0.508425
vt 0.502522 0.503806
vt 0.563026 0.507675
vt 0.562815 0.503638
vt 0.454222 0.516766
vt 0.504939 0.515909
vt 0.563118 0.513647
vt 0.403216 0.503633
vt 0.414933 0.516885
vt 0.411991 0.508710
vt 0.365310 0.503577
vt 0.363026 0.508691
vt 0.373368 0.508691
vt 0.372387 0.503577
vt 0.387401 0.508694
vt 0.381945 0.503582
vt 0.373772 0.516882
vt 0.389474 0.516883
vt 0.369091 0.500000
vt 0.371061 0.500000
vt 0.373031 0.500000
vt 0.505044 0.624816
vt 0.454524 0.624977
vt 0.563131 0.624339
vt 0.389770 0.625000
vt 0.373829 0.625000
vt 0.415354 0.625000
vt 0.585262 0.597468
vt 0.585262 0.623812
vt 0.585262 0.520635
vt 0.585254 0.512328
vt 0.585195 0.507305
vt 0.585060 0.503525
vt 0.584925 0.500398
vt 0.584857 0.484082
vt 0.584857 0.460300
vt 0.584857 0.432843
vt 0.584857 0.404014
vt 0.584857 0.375726
vt 0.585262 0.569857
vt 0.585262 0.543585
vt 0.584866 0.498072
vt 0.584857 0.495424
vt 0.584857 0.491560
vt 0.585254 0.512329
vt 0.585060 0.503525
vt 0.584925 0.500398
vt 0.584866 0.498072
s 1
usemtl water
f 402/105/313 401/117/313 400/118/313 396/107/313 408/122/313 407/109/313 406/123/313 394/124/313 399/125/313 398/120/313 397/121/313 395/112/313 405/113/313 404/114/313 403/115/313 409/116/313 419/115/313 420/114/313 421/113/313 411/112/313 413/121/313 414/120/313 415/119/313 410/111/313 422/110/313 423/109/313 424/108/313 412/107/313 416/118/313 417/117/313 418/105/313 392/106/313 385/105/313 384/117/313 383/118/313 379/107/313 391/122/313 390/109/313 389/123/313 377/124/313 382/125/313 381/120/313 380/121/313 378/112/313 388/113/313 387/114/313 386/115/313 376/116/313 370/115/313 371/114/313 372/113/313 362/112/313 364/121/313 365/120/313 366/119/313 361/111/313 373/110/313 374/109/313 375/108/313 363/107/313 367/118/313 368/117/313 369/105/313 393/106/313
usemtl side_water
f 29/1/1 32/2/2 33/3/3 30/4/4
f 30/4/4 33/3/3 34/5/5 31/6/6
f 32/2/2 35/7/7 36/8/8 33/3/3
f 33/3/3 36/8/8 37/9/9 34/5/5
f 2/10/10 15/11/11 29/1/1 18/12/12
f 18/12/12 29/1/1 30/4/4 17/13/13
f 17/13/13 30/4/4 31/6/6 16/14/14
f 36/8/15 5/15/16 4/16/17 37/9/18
f 35/7/7 6/17/19 5/15/16 36/8/15
f 13/18/20 1/19/21 6/17/19 35/7/7
f 14/20/22 13/18/20 35/7/7 32/2/2
f 15/11/11 14/20/22 32/2/2 29/1/1
f 38/21/23 40/22/24 41/23/25 39/24/26
f 40/22/24 42/25/24 43/26/25 41/23/25
f 28/27/27 38/21/23 39/24/26 27/28/28
f 27/28/28 39/24/26 21/29/29 3/30/30
f 39/24/26 41/23/25 20/31/31 21/29/29
f 41/23/25 43/26/25 19/32/31 20/31/31
f 44/33/32 47/34/32 48/35/33 45/36/33
f 45/36/33 48/35/33 49/37/34 46/38/34
f 47/34/32 50/39/32 51/40/33 48/35/33
f 48/35/33 51/40/33 52/41/34 49/37/34
f 3/30/30 21/29/29 44/33/32 26/42/35
f 26/42/35 44/33/32 45/36/33 25/43/36
f 25/43/36 45/36/33 46/38/34 24/44/37
f 20/31/31 19/32/31 50/39/32 47/34/32
f 21/29/29 20/31/31 47/34/32 44/33/32
f 53/45/38 56/46/38 57/47/39 54/48/39
f 54/48/39 57/47/39 58/49/40 55/50/40
f 56/46/38 59/51/38 60/52/39 57/47/39
f 57/47/39 60/52/39 61/53/40 58/49/40
f 85/54/41 12/55/41 53/45/38 86/56/38
f 86/56/38 53/45/38 54/48/39 87/57/39
f 87/57/39 54/48/39 55/50/40 88/58/40
f 60/52/39 17/13/13 16/14/14 61/53/40
f 59/51/38 18/12/12 17/13/13 60/52/39
f 10/59/41 2/10/10 18/12/12 59/51/38
f 11/60/41 10/59/41 59/51/38 56/46/38
f 12/55/41 11/60/41 56/46/38 53/45/38
f 62/61/42 65/62/43 66/63/43 63/64/42
f 63/64/42 66/63/43 67/65/44 64/66/45
f 85/67/41 90/68/42 62/61/42 12/69/41
f 12/69/41 62/61/42 63/64/42 11/70/41
f 11/70/41 63/64/42 64/66/45 10/71/41
f 10/71/41 64/66/45 22/72/46 2/73/10
f 64/66/45 67/65/44 23/74/47 22/72/46
f 90/68/42 89/75/43 65/62/43 62/61/42
f 68/76/48 71/77/49 72/78/50 69/79/51
f 69/79/51 72/78/50 73/80/52 70/81/53
f 71/77/49 74/82/54 75/83/55 72/78/50
f 72/78/50 75/83/55 76/84/56 73/80/52
f 1/19/57 9/85/58 68/76/48 6/17/59
f 6/17/59 68/76/48 69/79/51 5/15/60
f 5/15/60 69/79/51 70/81/53 4/16/61
f 75/83/55 25/43/36 24/44/37 76/84/56
f 74/82/54 26/42/35 25/43/36 75/83/55
f 7/86/62 3/30/30 26/42/35 74/82/54
f 8/87/63 7/86/62 74/82/54 71/77/49
f 9/85/58 8/87/63 71/77/49 68/76/48
f 77/88/64 80/89/65 81/90/66 78/91/67
f 78/91/68 81/90/69 82/92/70 79/93/68
f 81/90/69 83/94/71 84/95/72 82/92/70
f 2/73/10 22/72/46 77/88/64 15/96/11
f 15/96/11 77/88/64 78/91/67 14/97/22
f 14/97/22 78/91/67 79/93/73 13/98/20
f 13/98/74 79/93/75 9/85/58 1/19/57
f 79/93/75 82/92/70 8/87/63 9/85/58
f 82/92/70 84/95/72 7/86/62 8/87/63
f 84/95/72 27/28/28 3/30/30 7/86/62
f 83/94/71 28/27/27 27/28/28 84/95/72
f 22/72/46 23/74/47 80/89/65 77/88/64
f 119/1/76 120/4/77 123/3/78 122/2/79
f 120/4/77 121/6/80 124/5/81 123/3/78
f 122/2/79 123/3/78 126/8/82 125/7/83
f 123/3/78 124/5/81 127/9/84 126/8/82
f 92/10/85 108/12/86 119/1/76 105/11/87
f 108/12/86 107/13/88 120/4/77 119/1/76
f 107/13/88 106/14/89 121/6/80 120/4/77
f 126/8/90 127/9/91 94/16/92 95/15/93
f 125/7/83 126/8/90 95/15/93 96/17/94
f 103/18/95 125/7/83 96/17/94 91/19/96
f 104/20/97 122/2/79 125/7/83 103/18/95
f 105/11/87 119/1/76 122/2/79 104/20/97
f 128/21/98 129/24/99 131/23/100 130/22/101
f 130/22/101 131/23/100 133/26/100 132/25/101
f 118/27/102 117/28/103 129/24/99 128/21/98
f 117/28/103 93/30/104 111/29/105 129/24/99
f 129/24/99 111/29/105 110/31/106 131/23/100
f 131/23/100 110/31/106 109/32/106 133/26/100
f 134/33/107 135/36/108 138/35/108 137/34/107
f 135/36/108 136/38/109 139/37/109 138/35/108
f 137/34/107 138/35/108 141/40/108 140/39/107
f 138/35/108 139/37/109 142/41/109 141/40/108
f 93/30/104 116/42/110 134/33/107 111/29/105
f 116/42/110 115/43/111 135/36/108 134/33/107
f 115/43/111 114/44/112 136/38/109 135/36/108
f 110/31/106 137/34/107 140/39/107 109/32/106
f 111/29/105 134/33/107 137/34/107 110/31/106
f 143/45/38 144/48/39 147/47/39 146/46/38
f 144/48/39 145/50/40 148/49/40 147/47/39
f 146/46/38 147/47/39 150/52/39 149/51/38
f 147/47/39 148/49/40 151/53/40 150/52/39
f 85/54/41 86/56/38 143/45/38 102/55/41
f 86/56/38 87/57/39 144/48/39 143/45/38
f 87/57/39 88/58/40 145/50/40 144/48/39
f 150/52/39 151/53/40 106/14/89 107/13/88
f 149/51/38 150/52/39 107/13/88 108/12/86
f 100/59/41 149/51/38 108/12/86 92/10/85
f 101/60/41 146/46/38 149/51/38 100/59/41
f 102/55/41 143/45/38 146/46/38 101/60/41
f 152/61/42 153/64/42 156/63/43 155/62/43
f 153/64/42 154/66/45 157/65/44 156/63/43
f 85/67/41 102/69/41 152/61/42 90/68/42
f 102/69/41 101/70/41 153/64/42 152/61/42
f 101/70/41 100/71/41 154/66/45 153/64/42
f 100/71/41 92/73/85 112/72/113 154/66/45
f 154/66/45 112/72/113 113/74/114 157/65/44
f 90/68/42 152/61/42 155/62/43 89/75/43
f 158/76/115 159/79/116 162/78/117 161/77/118
f 159/79/116 160/81/119 163/80/120 162/78/117
f 161/77/118 162/78/117 165/83/121 164/82/122
f 162/78/117 163/80/120 166/84/123 165/83/121
f 91/19/124 96/17/125 158/76/115 99/85/126
f 96/17/125 95/15/127 159/79/116 158/76/115
f 95/15/127 94/16/128 160/81/119 159/79/116
f 165/83/121 166/84/123 114/44/112 115/43/111
f 164/82/122 165/83/121 115/43/111 116/42/110
f 97/86/129 164/82/122 116/42/110 93/30/104
f 98/87/130 161/77/118 164/82/122 97/86/129
f 99/85/126 158/76/115 161/77/118 98/87/130
f 167/88/131 168/91/132 171/90/133 170/89/134
f 168/91/135 169/93/135 172/92/136 171/90/137
f 171/90/137 172/92/136 174/95/138 173/94/139
f 92/73/85 105/96/87 167/88/131 112/72/113
f 105/96/87 104/97/97 168/91/132 167/88/131
f 104/97/97 103/98/95 169/93/140 168/91/132
f 103/98/141 91/19/124 99/85/126 169/93/142
f 169/93/142 99/85/126 98/87/130 172/92/136
f 172/92/136 98/87/130 97/86/129 174/95/138
f 174/95/138 97/86/129 93/30/104 117/28/103
f 173/94/139 174/95/138 117/28/103 118/27/102
f 112/72/113 167/88/131 170/89/134 113/74/114
f 140/39/107 141/40/108 185/99/108 186/100/107
f 141/40/108 142/41/109 184/101/109 185/99/108
f 132/25/101 133/26/100 182/102/100 183/103/101
f 133/26/100 109/32/106 181/104/106 182/102/100
f 109/32/106 140/39/107 186/100/107 181/104/106
f 50/39/32 180/100/32 179/99/33 51/40/33
f 51/40/33 179/99/33 178/101/34 52/41/34
f 42/25/24 177/103/24 176/102/25 43/26/25
f 43/26/25 176/102/25 175/104/31 19/32/31
f 19/32/31 175/104/31 180/100/32 50/39/32
f 215/1/143 216/4/144 219/3/145 218/2/146
f 216/4/144 217/6/147 220/5/148 219/3/145
f 218/2/146 219/3/145 222/8/149 221/7/150
f 219/3/145 220/5/148 223/9/151 222/8/149
f 188/10/152 204/12/153 215/1/143 201/11/154
f 204/12/153 203/13/155 216/4/144 215/1/143
f 203/13/155 202/14/156 217/6/147 216/4/144
f 222/8/157 223/9/158 190/16/159 191/15/160
f 221/7/150 222/8/157 191/15/160 192/17/161
f 199/18/162 221/7/150 192/17/161 187/19/163
f 200/20/164 218/2/146 221/7/150 199/18/162
f 201/11/154 215/1/143 218/2/146 200/20/164
f 224/21/165 225/24/26 227/23/25 226/22/24
f 226/22/24 227/23/25 229/26/25 228/25/24
f 214/27/166 213/28/167 225/24/26 224/21/165
f 213/28/167 189/30/168 207/29/29 225/24/26
f 225/24/26 207/29/29 206/31/31 227/23/25
f 227/23/25 206/31/31 205/32/31 229/26/25
f 230/33/32 231/36/33 234/35/33 233/34/32
f 231/36/33 232/38/34 235/37/34 234/35/33
f 233/34/32 234/35/33 237/40/33 236/39/32
f 234/35/33 235/37/34 238/41/34 237/40/33
f 189/30/168 212/42/169 230/33/32 207/29/29
f 212/42/169 211/43/170 231/36/33 230/33/32
f 211/43/170 210/44/171 232/38/34 231/36/33
f 206/31/31 233/34/32 236/39/32 205/32/31
f 207/29/29 230/33/32 233/34/32 206/31/31
f 239/45/172 240/48/173 243/47/173 242/46/172
f 240/48/173 241/50/174 244/49/174 243/47/173
f 242/46/172 243/47/173 246/52/173 245/51/172
f 243/47/173 244/49/174 247/53/174 246/52/173
f 271/54/175 272/56/172 239/45/172 198/55/175
f 272/56/172 273/57/173 240/48/173 239/45/172
f 273/57/173 274/58/174 241/50/174 240/48/173
f 246/52/173 247/53/174 202/14/156 203/13/155
f 245/51/172 246/52/173 203/13/155 204/12/153
f 196/59/175 245/51/172 204/12/153 188/10/152
f 197/60/175 242/46/172 245/51/172 196/59/175
f 198/55/175 239/45/172 242/46/172 197/60/175
f 248/61/176 249/64/176 252/63/177 251/62/177
f 249/64/176 250/66/178 253/65/179 252/63/177
f 271/67/175 198/69/175 248/61/176 276/68/176
f 198/69/175 197/70/175 249/64/176 248/61/176
f 197/70/175 196/71/175 250/66/178 249/64/176
f 196/71/175 188/73/152 208/72/180 250/66/178
f 250/66/178 208/72/180 209/74/181 253/65/179
f 276/68/176 248/61/176 251/62/177 275/75/177
f 254/76/182 255/79/183 258/78/184 257/77/185
f 255/79/183 256/81/186 259/80/187 258/78/184
f 257/77/185 258/78/184 261/83/188 260/82/189
f 258/78/184 259/80/187 262/84/190 261/83/188
f 187/19/191 192/17/192 254/76/182 195/85/193
f 192/17/192 191/15/194 255/79/183 254/76/182
f 191/15/194 190/16/195 256/81/186 255/79/183
f 261/83/188 262/84/190 210/44/171 211/43/170
f 260/82/189 261/83/188 211/43/170 212/42/169
f 193/86/196 260/82/189 212/42/169 189/30/168
f 194/87/197 257/77/185 260/82/189 193/86/196
f 195/85/193 254/76/182 257/77/185 194/87/197
f 263/88/198 264/91/199 267/90/200 266/89/201
f 264/91/202 265/93/202 268/92/203 267/90/204
f 267/90/204 268/92/203 270/95/205 269/94/206
f 188/73/152 201/96/154 263/88/198 208/72/180
f 201/96/154 200/97/164 264/91/199 263/88/198
f 200/97/164 199/98/162 265/93/207 264/91/199
f 199/98/208 187/19/191 195/85/193 265/93/209
f 265/93/209 195/85/193 194/87/197 268/92/203
f 268/92/203 194/87/197 193/86/196 270/95/205
f 270/95/205 193/86/196 189/30/168 213/28/167
f 269/94/206 270/95/205 213/28/167 214/27/166
f 208/72/180 263/88/198 266/89/201 209/74/181
f 305/1/210 308/2/211 309/3/212 306/4/213
f 306/4/213 309/3/212 310/5/214 307/6/215
f 308/2/211 311/7/216 312/8/217 309/3/212
f 309/3/212 312/8/217 313/9/218 310/5/214
f 278/10/219 291/11/220 305/1/210 294/12/221
f 294/12/221 305/1/210 306/4/213 293/13/222
f 293/13/222 306/4/213 307/6/215 292/14/223
f 312/8/224 281/15/225 280/16/226 313/9/227
f 311/7/216 282/17/228 281/15/225 312/8/224
f 289/18/229 277/19/230 282/17/228 311/7/216
f 290/20/231 289/18/229 311/7/216 308/2/211
f 291/11/220 290/20/231 308/2/211 305/1/210
f 314/21/232 316/22/101 317/23/100 315/24/99
f 316/22/101 318/25/101 319/26/100 317/23/100
f 304/27/233 314/21/232 315/24/99 303/28/234
f 303/28/234 315/24/99 297/29/105 279/30/235
f 315/24/99 317/23/100 296/31/106 297/29/105
f 317/23/100 319/26/100 295/32/106 296/31/106
f 320/33/107 323/34/107 324/35/108 321/36/108
f 321/36/108 324/35/108 325/37/109 322/38/109
f 323/34/107 326/39/107 327/40/108 324/35/108
f 324/35/108 327/40/108 328/41/109 325/37/109
f 279/30/235 297/29/105 320/33/107 302/42/236
f 302/42/236 320/33/107 321/36/108 301/43/237
f 301/43/237 321/36/108 322/38/109 300/44/238
f 296/31/106 295/32/106 326/39/107 323/34/107
f 297/29/105 296/31/106 323/34/107 320/33/107
f 329/45/172 332/46/172 333/47/173 330/48/173
f 330/48/173 333/47/173 334/49/174 331/50/174
f 332/46/172 335/51/172 336/52/173 333/47/173
f 333/47/173 336/52/173 337/53/174 334/49/174
f 271/54/175 288/55/175 329/45/172 272/56/172
f 272/56/172 329/45/172 330/48/173 273/57/173
f 273/57/173 330/48/173 331/50/174 274/58/174
f 336/52/173 293/13/222 292/14/223 337/53/174
f 335/51/172 294/12/221 293/13/222 336/52/173
f 286/59/175 278/10/219 294/12/221 335/51/172
f 287/60/175 286/59/175 335/51/172 332/46/172
f 288/55/175 287/60/175 332/46/172 329/45/172
f 338/61/176 341/62/177 342/63/177 339/64/176
f 339/64/176 342/63/177 343/65/179 340/66/178
f 271/67/175 276/68/176 338/61/176 288/69/175
f 288/69/175 338/61/176 339/64/176 287/70/175
f 287/70/175 339/64/176 340/66/178 286/71/175
f 286/71/175 340/66/178 298/72/239 278/73/219
f 340/66/178 343/65/179 299/74/240 298/72/239
f 276/68/176 275/75/177 341/62/177 338/61/176
f 344/76/241 347/77/242 348/78/243 345/79/244
f 345/79/244 348/78/243 349/80/245 346/81/246
f 347/77/242 350/82/247 351/83/248 348/78/243
f 348/78/243 351/83/248 352/84/249 349/80/245
f 277/19/250 285/85/251 344/76/241 282/17/252
f 282/17/252 344/76/241 345/79/244 281/15/253
f 281/15/253 345/79/244 346/81/246 280/16/254
f 351/83/248 301/43/237 300/44/238 352/84/249
f 350/82/247 302/42/236 301/43/237 351/83/248
f 283/86/255 279/30/235 302/42/236 350/82/247
f 284/87/256 283/86/255 350/82/247 347/77/242
f 285/85/251 284/87/256 347/77/242 344/76/241
f 353/88/257 356/89/258 357/90/259 354/91/260
f 354/91/261 357/90/262 358/92/263 355/93/261
f 357/90/262 359/94/264 360/95/265 358/92/263
f 278/73/219 298/72/239 353/88/257 291/96/220
f 291/96/220 353/88/257 354/91/260 290/97/231
f 290/97/231 354/91/260 355/93/266 289/98/229
f 289/98/267 355/93/268 285/85/251 277/19/250
f 355/93/268 358/92/263 284/87/256 285/85/251
f 358/92/263 360/95/265 283/86/255 284/87/256
f 360/95/265 303/28/234 279/30/235 283/86/255
f 359/94/264 304/27/233 303/28/234 360/95/265
f 298/72/239 299/74/240 356/89/258 353/88/257
f 326/39/107 186/100/107 185/99/108 327/40/108
f 327/40/108 185/99/108 184/101/109 328/41/109
f 318/25/101 183/103/101 182/102/100 319/26/100
f 319/26/100 182/102/100 181/104/106 295/32/106
f 295/32/106 181/104/106 186/100/107 326/39/107
f 236/39/32 237/40/33 179/99/33 180/100/32
f 237/40/33 238/41/34 178/101/34 179/99/33
f 228/25/24 229/26/25 176/102/25 177/103/24
f 229/26/25 205/32/31 175/104/31 176/102/25
f 205/32/31 236/39/32 180/100/32 175/104/31
f 238/41/34 402/105/269 393/106/269 178/101/34
f 328/41/109 184/101/109 392/106/270 418/105/270
f 352/84/249 300/44/238 412/107/271 424/108/272
f 349/80/245 352/84/249 424/108/272 423/109/273
f 346/81/246 349/80/245 423/109/273 422/110/274
f 280/16/254 346/81/246 422/110/274 410/111/275
f 337/53/174 292/14/223 411/112/276 421/113/277
f 334/49/174 337/53/174 421/113/277 420/114/277
f 331/50/174 334/49/174 420/114/277 419/115/277
f 274/58/174 331/50/174 419/115/277 409/116/277
f 325/37/109 328/41/109 418/105/270 417/117/270
f 322/38/109 325/37/109 417/117/270 416/118/270
f 300/44/238 322/38/109 416/118/270 412/107/271
f 313/9/227 280/16/226 410/111/278 415/119/278
f 310/5/214 313/9/218 415/119/279 414/120/280
f 307/6/215 310/5/214 414/120/280 413/121/281
f 292/14/223 307/6/215 413/121/281 411/112/276
f 262/84/190 408/122/282 396/107/283 210/44/171
f 259/80/187 407/109/284 408/122/282 262/84/190
f 256/81/186 406/123/285 407/109/284 259/80/187
f 190/16/195 394/124/286 406/123/285 256/81/186
f 247/53/174 405/113/277 395/112/287 202/14/156
f 244/49/174 404/114/277 405/113/277 247/53/174
f 241/50/174 403/115/277 404/114/277 244/49/174
f 274/58/174 409/116/277 403/115/277 241/50/174
f 235/37/34 401/117/269 402/105/269 238/41/34
f 232/38/34 400/118/269 401/117/269 235/37/34
f 210/44/171 396/107/283 400/118/269 232/38/34
f 223/9/158 399/125/288 394/124/288 190/16/159
f 220/5/148 398/120/289 399/125/290 223/9/151
f 217/6/147 397/121/291 398/120/289 220/5/148
f 202/14/156 395/112/287 397/121/291 217/6/147
f 52/41/34 178/101/34 393/106/269 369/105/269
f 142/41/109 385/105/270 392/106/270 184/101/109
f 166/84/123 391/122/292 379/107/293 114/44/112
f 163/80/120 390/109/294 391/122/292 166/84/123
f 160/81/119 389/123/295 390/109/294 163/80/120
f 94/16/128 377/124/296 389/123/295 160/81/119
f 151/53/40 388/113/297 378/112/298 106/14/89
f 148/49/40 387/114/297 388/113/297 151/53/40
f 145/50/40 386/115/297 387/114/297 148/49/40
f 88/58/40 376/116/297 386/115/297 145/50/40
f 139/37/109 384/117/270 385/105/270 142/41/109
f 136/38/109 383/118/270 384/117/270 139/37/109
f 114/44/112 379/107/293 383/118/270 136/38/109
f 127/9/91 382/125/299 377/124/299 94/16/92
f 124/5/81 381/120/300 382/125/301 127/9/84
f 121/6/80 380/121/302 381/120/300 124/5/81
f 106/14/89 378/112/298 380/121/302 121/6/80
f 76/84/56 24/44/37 363/107/303 375/108/304
f 73/80/52 76/84/56 375/108/304 374/109/305
f 70/81/53 73/80/52 374/109/305 373/110/306
f 4/16/61 70/81/53 373/110/306 361/111/307
f 61/53/40 16/14/14 362/112/308 372/113/297
f 58/49/40 61/53/40 372/113/297 371/114/297
f 55/50/40 58/49/40 371/114/297 370/115/297
f 88/58/40 55/50/40 370/115/297 376/116/297
f 49/37/34 52/41/34 369/105/269 368/117/269
f 46/38/34 49/37/34 368/117/269 367/118/269
f 24/44/37 46/38/34 367/118/269 363/107/303
f 37/9/18 4/16/17 361/111/309 366/119/309
f 34/5/5 37/9/9 366/119/310 365/120/311
f 31/6/6 34/5/5 365/120/311 364/121/312
f 16/14/14 31/6/6 364/121/312 362/112/308
