# Blender 5.1.2
# www.blender.org
o Plane
v -0.307043 0.000000 -0.307043
v -0.307043 0.000000 0.307043
v 0.307043 0.000000 0.307043
v 0.307043 0.000000 -0.307043
v -0.334253 0.070183 -0.334253
v -0.334253 0.070183 0.334253
v 0.334253 0.070183 0.334253
v 0.334253 0.070183 -0.334253
v -0.347878 0.145478 -0.347878
v -0.347878 0.145478 0.347878
v 0.347878 0.145478 0.347878
v 0.347878 0.145478 -0.347878
v -0.364050 0.448284 -0.364050
v -0.364050 0.448284 0.364050
v 0.364050 0.448284 0.364050
v 0.364050 0.448284 -0.364050
v -0.369026 0.887220 -0.369026
v -0.369026 0.887220 0.369026
v 0.369026 0.887220 0.369026
v 0.369026 0.887220 -0.369026
v -0.413573 0.891154 -0.413573
v -0.413573 0.891154 0.413573
v 0.413573 0.891154 0.413573
v 0.413573 0.891154 -0.413573
v -0.413573 0.850855 -0.413573
v -0.413573 0.850855 0.413573
v 0.413573 0.850855 0.413573
v 0.413573 0.850855 -0.413573
v -0.302447 0.007600 -0.302447
v -0.302447 0.007600 0.302447
v 0.302447 0.007600 0.302447
v 0.302447 0.007600 -0.302447
v -0.327626 0.073674 -0.327626
v -0.327626 0.073674 0.327626
v 0.327626 0.073674 0.327626
v 0.327626 0.073674 -0.327626
v -0.340894 0.147041 -0.340894
v -0.340894 0.147041 0.340894
v 0.340894 0.147041 0.340894
v 0.340894 0.147041 -0.340894
v -0.356986 0.448735 -0.356986
v -0.356986 0.448735 0.356986
v 0.356986 0.448735 0.356986
v 0.356986 0.448735 -0.356986
v -0.365721 0.896061 -0.365721
v -0.365721 0.896061 0.365721
v 0.365721 0.896061 0.365721
v 0.365721 0.896061 -0.365721
v -0.419260 0.897096 -0.419260
v -0.419260 0.897096 0.419260
v 0.419260 0.897096 0.419260
v 0.419260 0.897096 -0.419260
v -0.420644 0.850855 -0.420644
v -0.420644 0.850855 0.420644
v 0.420644 0.850855 0.420644
v 0.420644 0.850855 -0.420644
vn 0.9324 -0.3615 -0.0000
vn 0.9670 -0.2548 -0.0000
vn -0.0000 -1.0000 -0.0000
vn -0.0000 -0.2548 -0.9670
vn -0.0000 -0.1112 -0.9938
vn -0.9324 -0.3615 -0.0000
vn -0.9670 -0.2548 -0.0000
vn -0.0000 -0.3615 -0.9324
vn -0.0000 -0.3615 0.9324
vn -0.0000 -0.2548 0.9670
vn -0.0000 -0.1112 0.9938
vn 0.9938 -0.1112 -0.0000
vn -0.9938 -0.1112 -0.0000
vn 0.9995 -0.0319 -0.0000
vn -0.9995 -0.0319 -0.0000
vn -0.0000 -0.0319 -0.9995
vn -0.0000 -0.0319 0.9995
vn -0.9999 -0.0113 -0.0000
vn -0.0000 -0.0113 -0.9999
vn -0.0000 -0.0113 0.9999
vn 0.9999 -0.0113 -0.0000
vn 0.0441 -0.9981 -0.0441
vn -0.0441 -0.9981 -0.0441
vn -0.0441 -0.9981 0.0441
vn 0.0441 -0.9981 0.0441
vn -1.0000 -0.0000 -0.0000
vn 1.0000 -0.0000 -0.0000
vn -0.0000 -0.0000 1.0000
vn -0.0000 -0.0000 -1.0000
vn -0.9344 0.3561 -0.0000
vn -0.9676 0.2526 -0.0000
vn -0.0000 1.0000 -0.0000
vn -0.0000 0.2526 0.9676
vn -0.0000 0.1111 0.9938
vn 0.9344 0.3561 -0.0000
vn 0.9676 0.2526 -0.0000
vn -0.0000 0.3561 0.9344
vn -0.0000 0.3561 -0.9344
vn -0.0000 0.2526 -0.9676
vn -0.0000 0.1111 -0.9938
vn -0.9938 0.1111 -0.0000
vn 0.9938 0.1111 -0.0000
vn -0.9994 0.0360 -0.0000
vn 0.9994 0.0360 -0.0000
vn -0.0000 0.0360 0.9994
vn -0.0000 0.0360 -0.9994
vn 0.9998 0.0195 -0.0000
vn -0.0000 0.0195 0.9998
vn -0.0000 0.0195 -0.9998
vn -0.9998 0.0195 -0.0000
vn -0.0097 0.9999 0.0097
vn 0.0097 0.9999 0.0097
vn 0.0097 0.9999 -0.0097
vn -0.0097 0.9999 -0.0097
vn 0.9996 0.0299 -0.0000
vn -0.9996 0.0299 -0.0000
vn -0.0000 0.0299 -0.9996
vn -0.0000 0.0299 0.9996
vt 1.000000 0.000000
vt 1.000000 1.000000
vt 0.000000 1.000000
vt 0.000000 0.000000
s 1
f 3/1/1 4/2/1 8/2/2 7/1/2
f 1/3/3 4/2/3 3/1/3 2/4/3
f 8/2/4 5/3/4 9/3/5 12/2/5
f 1/3/6 2/4/6 6/4/7 5/3/7
f 4/2/8 1/3/8 5/3/4 8/2/4
f 2/4/9 3/1/9 7/1/10 6/4/10
f 6/4/10 7/1/10 11/1/11 10/4/11
f 7/1/2 8/2/2 12/2/12 11/1/12
f 5/3/7 6/4/7 10/4/13 9/3/13
f 11/1/12 12/2/12 16/2/14 15/1/14
f 9/3/13 10/4/13 14/4/15 13/3/15
f 12/2/5 9/3/5 13/3/16 16/2/16
f 10/4/11 11/1/11 15/1/17 14/4/17
f 13/3/15 14/4/15 18/4/18 17/3/18
f 16/2/16 13/3/16 17/3/19 20/2/19
f 14/4/17 15/1/17 19/1/20 18/4/20
f 15/1/14 16/2/14 20/2/21 19/1/21
f 20/2/22 17/3/23 21/3/23 24/2/22
f 18/4/24 19/1/25 23/1/25 22/4/24
f 19/1/25 20/2/22 24/2/22 23/1/25
f 17/3/23 18/4/24 22/4/24 21/3/23
f 23/1/26 24/2/26 28/2/26 27/1/26
f 21/3/27 22/4/27 26/4/27 25/3/27
f 24/2/28 21/3/28 25/3/28 28/2/28
f 22/4/29 23/1/29 27/1/29 26/4/29
f 31/1/30 35/1/31 36/2/31 32/2/30
f 29/3/32 30/4/32 31/1/32 32/2/32
f 36/2/33 40/2/34 37/3/34 33/3/33
f 29/3/35 33/3/36 34/4/36 30/4/35
f 32/2/37 36/2/33 33/3/33 29/3/37
f 30/4/38 34/4/39 35/1/39 31/1/38
f 34/4/39 38/4/40 39/1/40 35/1/39
f 35/1/31 39/1/41 40/2/41 36/2/31
f 33/3/36 37/3/42 38/4/42 34/4/36
f 39/1/41 43/1/43 44/2/43 40/2/41
f 37/3/42 41/3/44 42/4/44 38/4/42
f 40/2/34 44/2/45 41/3/45 37/3/34
f 38/4/40 42/4/46 43/1/46 39/1/40
f 41/3/44 45/3/47 46/4/47 42/4/44
f 44/2/45 48/2/48 45/3/48 41/3/45
f 42/4/46 46/4/49 47/1/49 43/1/46
f 43/1/43 47/1/50 48/2/50 44/2/43
f 48/2/51 52/2/51 49/3/52 45/3/52
f 46/4/53 50/4/53 51/1/54 47/1/54
f 47/1/54 51/1/54 52/2/51 48/2/51
f 45/3/52 49/3/52 50/4/53 46/4/53
f 51/1/55 55/1/55 56/2/55 52/2/55
f 49/3/56 53/3/56 54/4/56 50/4/56
f 52/2/57 56/2/57 53/3/57 49/3/57
f 50/4/58 54/4/58 55/1/58 51/1/58
f 25/3/3 26/4/3 54/4/3 53/3/3
f 26/4/3 27/1/3 55/1/3 54/4/3
f 27/1/3 28/2/3 56/2/3 55/1/3
f 28/2/3 25/3/3 53/3/3 56/2/3
