# Blender 5.1.1
# www.blender.org
mtllib gate.mtl
o Circle
v -0.000000 0.697494 1.350000
v -0.136074 0.684092 1.350000
v -0.266920 0.644401 1.350000
v -0.387507 0.579945 1.350000
v -0.493203 0.493203 1.350000
v -0.579945 0.387507 1.350000
v -0.644401 0.266920 1.350000
v -0.684092 0.136074 1.350000
v -0.697494 0.000000 1.350000
v -0.684092 -0.136074 1.350000
v -0.644401 -0.266920 1.350000
v -0.579945 -0.387507 1.350000
v -0.493203 -0.493203 1.350000
v -0.387507 -0.579945 1.350000
v -0.266920 -0.644401 1.350000
v -0.136074 -0.684092 1.350000
v -0.000000 -0.697494 1.350000
v 0.136074 -0.684092 1.350000
v 0.266920 -0.644401 1.350000
v 0.387507 -0.579945 1.350000
v 0.493203 -0.493203 1.350000
v 0.579945 -0.387507 1.350000
v 0.644401 -0.266920 1.350000
v 0.684092 -0.136074 1.350000
v 0.697494 0.000000 1.350000
v 0.684092 0.136074 1.350000
v 0.644401 0.266920 1.350000
v 0.579945 0.387507 1.350000
v 0.493203 0.493203 1.350000
v 0.387507 0.579945 1.350000
v 0.266920 0.644401 1.350000
v 0.136074 0.684092 1.350000
v -0.000000 0.697494 -1.350000
v -0.136074 0.684092 -1.350000
v -0.266920 0.644401 -1.350000
v -0.387507 0.579945 -1.350000
v -0.493203 0.493203 -1.350000
v -0.579945 0.387507 -1.350000
v -0.644401 0.266920 -1.350000
v -0.684092 0.136074 -1.350000
v -0.697494 0.000000 -1.350000
v -0.684092 -0.136074 -1.350000
v -0.644401 -0.266920 -1.350000
v -0.579945 -0.387507 -1.350000
v -0.493203 -0.493203 -1.350000
v -0.387507 -0.579945 -1.350000
v -0.266920 -0.644401 -1.350000
v -0.136074 -0.684092 -1.350000
v -0.000000 -0.697494 -1.350000
v 0.136074 -0.684092 -1.350000
v 0.266920 -0.644401 -1.350000
v 0.387507 -0.579945 -1.350000
v 0.493203 -0.493203 -1.350000
v 0.579945 -0.387507 -1.350000
v 0.644401 -0.266920 -1.350000
v 0.684092 -0.136074 -1.350000
v 0.697494 0.000000 -1.350000
v 0.684092 0.136074 -1.350000
v 0.644401 0.266920 -1.350000
v 0.579945 0.387507 -1.350000
v 0.493203 0.493203 -1.350000
v 0.387507 0.579945 -1.350000
v 0.266920 0.644401 -1.350000
v 0.136074 0.684092 -1.350000
vn -0.0000 1.0000 -0.0000
vn -0.1951 0.9808 -0.0000
vn -0.3827 0.9239 -0.0000
vn -0.5556 0.8315 -0.0000
vn -0.7071 0.7071 -0.0000
vn -0.8315 0.5556 -0.0000
vn -0.9239 0.3827 -0.0000
vn -0.9808 0.1951 -0.0000
vn -1.0000 -0.0000 -0.0000
vn -0.9808 -0.1951 -0.0000
vn -0.9239 -0.3827 -0.0000
vn -0.8315 -0.5556 -0.0000
vn -0.7071 -0.7071 -0.0000
vn -0.5556 -0.8315 -0.0000
vn -0.3827 -0.9239 -0.0000
vn -0.1951 -0.9808 -0.0000
vn -0.0000 -1.0000 -0.0000
vn 0.1951 -0.9808 -0.0000
vn 0.3827 -0.9239 -0.0000
vn 0.5556 -0.8315 -0.0000
vn 0.7071 -0.7071 -0.0000
vn 0.8315 -0.5556 -0.0000
vn 0.9239 -0.3827 -0.0000
vn 0.9808 -0.1951 -0.0000
vn 1.0000 -0.0000 -0.0000
vn 0.9808 0.1951 -0.0000
vn 0.9239 0.3827 -0.0000
vn 0.8315 0.5556 -0.0000
vn 0.7071 0.7071 -0.0000
vn 0.5556 0.8315 -0.0000
vn 0.3827 0.9239 -0.0000
vn 0.1951 0.9808 -0.0000
vt 0.000000 0.000000
s 1
f 19/1/19 18/1/18 50/1/18 51/1/19
f 6/1/6 5/1/5 37/1/5 38/1/6
f 1/1/1 32/1/32 64/1/32 33/1/1
f 20/1/20 19/1/19 51/1/19 52/1/20
f 7/1/7 6/1/6 38/1/6 39/1/7
f 21/1/21 20/1/20 52/1/20 53/1/21
f 8/1/8 7/1/7 39/1/7 40/1/8
f 22/1/22 21/1/21 53/1/21 54/1/22
f 9/1/9 8/1/8 40/1/8 41/1/9
f 23/1/23 22/1/22 54/1/22 55/1/23
f 10/1/10 9/1/9 41/1/9 42/1/10
f 24/1/24 23/1/23 55/1/23 56/1/24
f 11/1/11 10/1/10 42/1/10 43/1/11
f 25/1/25 24/1/24 56/1/24 57/1/25
f 12/1/12 11/1/11 43/1/11 44/1/12
f 26/1/26 25/1/25 57/1/25 58/1/26
f 13/1/13 12/1/12 44/1/12 45/1/13
f 27/1/27 26/1/26 58/1/26 59/1/27
f 14/1/14 13/1/13 45/1/13 46/1/14
f 28/1/28 27/1/27 59/1/27 60/1/28
f 15/1/15 14/1/14 46/1/14 47/1/15
f 2/1/2 1/1/1 33/1/1 34/1/2
f 29/1/29 28/1/28 60/1/28 61/1/29
f 16/1/16 15/1/15 47/1/15 48/1/16
f 3/1/3 2/1/2 34/1/2 35/1/3
f 30/1/30 29/1/29 61/1/29 62/1/30
f 17/1/17 16/1/16 48/1/16 49/1/17
f 4/1/4 3/1/3 35/1/3 36/1/4
f 31/1/31 30/1/30 62/1/30 63/1/31
f 18/1/18 17/1/17 49/1/17 50/1/18
f 5/1/5 4/1/4 36/1/4 37/1/5
f 32/1/32 31/1/31 63/1/31 64/1/32
